<?xml version="1.0" encoding="us-ascii" standalone="no"?><svg xmlns="http://www.w3.org/2000/svg" xmlns:xlink="http://www.w3.org/1999/xlink" contentStyleType="text/css" height="795.8333px" preserveAspectRatio="none" style="width:804px;height:795px;" version="1.1" viewBox="0 0 804 795" width="804.1667px" zoomAndPan="magnify"><defs><linearGradient id="g15uoc5p5cohgd0" x1="50%" x2="50%" y1="0%" y2="100%"><stop offset="0%" stop-color="#F18E3E"/><stop offset="100%" stop-color="#EC7211"/></linearGradient></defs><g><!--class SOS--><g id="elem_SOS"><rect codeLine="4" fill="url(#g15uoc5p5cohgd0)" height="502.181" id="SOS" rx="4.1667" ry="4.1667" style="stroke:#EC7211;stroke-width:1.0416666666666667;" width="435.4167" x="191.1458" y="7.2917"/><rect fill="url(#g15uoc5p5cohgd0)" height="34.1715" rx="4.1667" ry="4.1667" style="stroke:url(#g15uoc5p5cohgd0);stroke-width:1.0416666666666667;" width="435.4167" x="191.1458" y="7.2917"/><rect fill="url(#g15uoc5p5cohgd0)" height="4.1667" style="stroke:url(#g15uoc5p5cohgd0);stroke-width:1.0416666666666667;" width="435.4167" x="191.1458" y="37.2965"/><rect codeLine="4" fill="none" height="502.181" id="SOS" rx="4.1667" ry="4.1667" style="stroke:#EC7211;stroke-width:1.0416666666666667;" width="435.4167" x="191.1458" y="7.2917"/><ellipse cx="386.4583" cy="24.3774" fill="#ADD1B2" rx="10.4167" ry="10.4167" style="stroke:#181818;stroke-width:1.0416666666666667;"/><path d="M388.3952,20.992 C387.7116,20.6665 387.2721,20.5688 386.6211,20.5688 C384.7005,20.5688 383.2194,22.0825 383.2194,24.0845 L383.2194,24.9146 C383.2194,26.8188 384.7819,28.2023 386.8978,28.2023 C387.793,28.2023 388.6556,27.9744 389.1927,27.5675 C389.6322,27.2746 389.86,26.9491 389.86,26.6561 C389.86,26.3306 389.5671,26.0376 389.2415,26.0376 C389.0788,26.0376 388.9323,26.1027 388.7858,26.2329 C388.444,26.591 388.444,26.591 388.3138,26.6561 C388.0046,26.8514 387.5,26.9491 386.9303,26.9491 C385.4329,26.9491 384.4727,26.1353 384.4727,24.882 L384.4727,24.0845 C384.4727,22.7661 385.4004,21.8058 386.6699,21.8058 C387.0931,21.8058 387.5488,21.9198 387.8906,22.1151 C388.2487,22.3104 388.3789,22.4731 388.444,22.7661 C388.4928,23.0754 388.5091,23.1567 388.6068,23.2544 C388.7044,23.3683 388.8835,23.4334 389.0462,23.4334 C389.2578,23.4334 389.4368,23.3358 389.5671,23.173 C389.6484,23.0591 389.681,22.9289 389.681,22.6034 L389.681,21.5617 C389.681,21.2524 389.6647,21.1548 389.5833,21.0409 C389.4694,20.8455 389.2741,20.7316 389.0462,20.7316 C388.8346,20.7316 388.6882,20.813 388.5254,21.0409 L388.3952,20.992 Z " fill="#000000"/><text fill="#FFFFFF" font-family="Verdana" font-size="11.4583" lengthAdjust="spacing" textLength="26.0417" x="411.4583" y="28.3442">SOS</text><line style="stroke:#EC7211;stroke-width:1.0416666666666667;" x1="192.1875" x2="625.5208" y1="41.4632" y2="41.4632"/><rect fill="none" height="6.25" style="stroke:#C82930;stroke-width:1.0416666666666667;" width="6.25" x="199.4792" y="55.9448"/><text fill="#FFFFFF" font-family="Verdana" font-size="11.4583" lengthAdjust="spacing" textLength="357.2917" x="216.1458" y="61.4741">gl_arr_ptr_str_task[SOS_NUMBER_OF_TASKS]: str_sos_task_t_</text><rect fill="none" height="6.25" style="stroke:#C82930;stroke-width:1.0416666666666667;" width="6.25" x="199.4792" y="79.6997"/><text fill="#FFFFFF" font-family="Verdana" font-size="11.4583" lengthAdjust="spacing" textLength="190.625" x="216.1458" y="85.229">gl_uint32_tick_counter: uint32_t_</text><rect fill="none" height="6.25" style="stroke:#C82930;stroke-width:1.0416666666666667;" width="6.25" x="199.4792" y="103.4546"/><text fill="#FFFFFF" font-family="Verdana" font-size="11.4583" lengthAdjust="spacing" textLength="248.9583" x="216.1458" y="108.9839">gl_uint8_number_of_tasks_added: uint8_t_</text><rect fill="none" height="6.25" style="stroke:#C82930;stroke-width:1.0416666666666667;" width="6.25" x="199.4792" y="127.2095"/><text fill="#FFFFFF" font-family="Verdana" font-size="11.4583" lengthAdjust="spacing" textLength="340.625" x="216.1458" y="132.7387">gl_enu_sos_scheduler_state: enu_sos_scheduler_state_t_</text><line style="stroke:#EC7211;stroke-width:1.0416666666666667;" x1="192.1875" x2="625.5208" y1="144.8161" y2="144.8161"/><rect fill="#F24D5C" height="6.25" style="stroke:#C82930;stroke-width:1.0416666666666667;" width="6.25" x="199.4792" y="159.2977"/><text fill="#FFFFFF" font-family="Verdana" font-size="11.4583" lengthAdjust="spacing" textLength="398.9583" x="216.1458" y="164.827">sos_find_task(uint8_task_id, ptr_ptr_str_sos_task): enu_sos_status_t_</text><rect fill="#F24D5C" height="6.25" style="stroke:#C82930;stroke-width:1.0416666666666667;" width="6.25" x="199.4792" y="183.0526"/><text fill="#FFFFFF" font-family="Verdana" font-size="11.4583" lengthAdjust="spacing" textLength="175" x="216.1458" y="188.5818">sos_sort_database(void): void</text><rect fill="#F24D5C" height="6.25" style="stroke:#C82930;stroke-width:1.0416666666666667;" width="6.25" x="199.4792" y="206.8075"/><text fill="#FFFFFF" font-family="Verdana" font-size="11.4583" lengthAdjust="spacing" textLength="200" x="216.1458" y="212.3367">sos_system_scheduler(void): void</text><rect fill="#F24D5C" height="6.25" style="stroke:#C82930;stroke-width:1.0416666666666667;" width="6.25" x="199.4792" y="230.5623"/><text fill="#FFFFFF" font-family="Verdana" font-size="11.4583" lengthAdjust="spacing" textLength="167.7083" x="216.1458" y="236.0916">sos_sys_tick_task(void): void</text><rect fill="#F24D5C" height="6.25" style="stroke:#C82930;stroke-width:1.0416666666666667;" width="6.25" x="199.4792" y="254.3172"/><text fill="#FFFFFF" font-family="Verdana" font-size="11.4583" lengthAdjust="spacing" textLength="380.2083" x="216.1458" y="259.8465">sos_generate_task_id(ptr_uint8_new_task_id): enu_sos_status_t_</text><rect fill="#F24D5C" height="6.25" style="stroke:#C82930;stroke-width:1.0416666666666667;" width="6.25" x="199.4792" y="278.0721"/><text fill="#FFFFFF" font-family="Verdana" font-size="11.4583" lengthAdjust="spacing" textLength="326.0417" x="216.1458" y="283.6014">gcd(uint32_first_var, uint32_second_variable): uint32_t_</text><rect fill="#F24D5C" height="6.25" style="stroke:#C82930;stroke-width:1.0416666666666667;" width="6.25" x="199.4792" y="301.827"/><text fill="#FFFFFF" font-family="Verdana" font-size="11.4583" lengthAdjust="spacing" textLength="321.875" x="216.1458" y="307.3563">lcm(uint32_first_var, uint32_second_variable):uint32_t_</text><rect fill="#F24D5C" height="6.25" style="stroke:#C82930;stroke-width:1.0416666666666667;" width="6.25" x="199.4792" y="325.5819"/><text fill="#FFFFFF" font-family="Verdana" font-size="11.4583" lengthAdjust="spacing" textLength="320.8333" x="216.1458" y="331.1111">calculate_hyper_period(ptr_uint32_hyper_period): void</text><ellipse cx="202.6042" cy="352.4618" fill="#84BE84" rx="3.125" ry="3.125" style="stroke:#038048;stroke-width:1.0416666666666667;"/><text fill="#FFFFFF" font-family="Verdana" font-size="11.4583" lengthAdjust="spacing" textLength="217.7083" x="216.1458" y="354.866">sos_init(void): enu_sos_taskStatus_t_</text><ellipse cx="202.6042" cy="376.2166" fill="#84BE84" rx="3.125" ry="3.125" style="stroke:#038048;stroke-width:1.0416666666666667;"/><text fill="#FFFFFF" font-family="Verdana" font-size="11.4583" lengthAdjust="spacing" textLength="233.3333" x="216.1458" y="378.6209">sos_deinit(void): enu_sos_taskStatus_t_</text><ellipse cx="202.6042" cy="399.9715" fill="#84BE84" rx="3.125" ry="3.125" style="stroke:#038048;stroke-width:1.0416666666666667;"/><text fill="#FFFFFF" font-family="Verdana" font-size="11.4583" lengthAdjust="spacing" textLength="375" x="216.1458" y="402.3758">sos_createTask(str_SOS_taskCreatet_*): enu_sos_taskStatus_t_</text><ellipse cx="202.6042" cy="423.7264" fill="#84BE84" rx="3.125" ry="3.125" style="stroke:#038048;stroke-width:1.0416666666666667;"/><text fill="#FFFFFF" font-family="Verdana" font-size="11.4583" lengthAdjust="spacing" textLength="313.5417" x="216.1458" y="426.1307">sos_deleteTask(uint8_taskID): enu_sos_taskStatus_t_</text><ellipse cx="202.6042" cy="447.4813" fill="#84BE84" rx="3.125" ry="3.125" style="stroke:#038048;stroke-width:1.0416666666666667;"/><text fill="#FFFFFF" font-family="Verdana" font-size="11.4583" lengthAdjust="spacing" textLength="370.8333" x="216.1458" y="449.8856">sos_modifyTask(str_SOS_taskCreatet_): enu_sos_taskStatus_t_</text><ellipse cx="202.6042" cy="471.2362" fill="#84BE84" rx="3.125" ry="3.125" style="stroke:#038048;stroke-width:1.0416666666666667;"/><text fill="#FFFFFF" font-family="Verdana" font-size="11.4583" lengthAdjust="spacing" textLength="193.75" x="216.1458" y="473.6404">sos_run(): enu_sos_taskStatus_t_</text><ellipse cx="202.6042" cy="494.991" fill="#84BE84" rx="3.125" ry="3.125" style="stroke:#038048;stroke-width:1.0416666666666667;"/><text fill="#FFFFFF" font-family="Verdana" font-size="11.4583" lengthAdjust="spacing" textLength="217.7083" x="216.1458" y="497.3953">sos_disable(): enu_sos_taskStatus_t_</text></g><!--class enu_sos_scheduler_state_t_--><g id="elem_enu_sos_scheduler_state_t_"><rect codeLine="26" fill="url(#g15uoc5p5cohgd0)" height="145.8577" id="enu_sos_scheduler_state_t_" rx="4.1667" ry="4.1667" style="stroke:#EC7211;stroke-width:1.0416666666666667;" width="244.7917" x="7.2917" y="607.2917"/><rect fill="url(#g15uoc5p5cohgd0)" height="34.1715" rx="4.1667" ry="4.1667" style="stroke:url(#g15uoc5p5cohgd0);stroke-width:1.0416666666666667;" width="244.7917" x="7.2917" y="607.2917"/><rect fill="url(#g15uoc5p5cohgd0)" height="4.1667" style="stroke:url(#g15uoc5p5cohgd0);stroke-width:1.0416666666666667;" width="244.7917" x="7.2917" y="637.2965"/><rect codeLine="26" fill="none" height="145.8577" id="enu_sos_scheduler_state_t_" rx="4.1667" ry="4.1667" style="stroke:#EC7211;stroke-width:1.0416666666666667;" width="244.7917" x="7.2917" y="607.2917"/><ellipse cx="38.2813" cy="624.3774" fill="#EB937F" rx="10.4167" ry="10.4167" style="stroke:#181818;stroke-width:1.0416666666666667;"/><path d="M37.5814,624.9797 L38.6393,624.9797 L38.6393,625.0773 C38.6393,625.3703 38.6719,625.4842 38.737,625.5981 C38.8509,625.7935 39.0625,625.8911 39.2741,625.8911 C39.4531,625.8911 39.6484,625.7935 39.7624,625.6307 C39.86,625.5168 39.8763,625.4028 39.8763,625.0773 L39.8763,623.6613 C39.8763,623.5474 39.8763,623.5148 39.8763,623.4009 C39.8112,623.0428 39.5996,622.8312 39.2578,622.8312 C39.0625,622.8312 38.8835,622.9289 38.7533,623.0916 C38.6719,623.2056 38.6393,623.3195 38.6393,623.6613 L38.6393,623.7427 L37.5814,623.7427 L37.5814,621.9849 L40.5111,621.9849 L40.5111,622.6034 C40.5111,622.9126 40.5273,623.0428 40.5924,623.1405 C40.7227,623.3358 40.918,623.4497 41.1296,623.4497 C41.3249,623.4497 41.5202,623.3521 41.6504,623.1893 C41.7318,623.0591 41.7643,622.9614 41.7643,622.6034 L41.7643,620.7316 L36.1491,620.7316 C35.8236,620.7316 35.7259,620.7479 35.612,620.8293 C35.4329,620.9432 35.319,621.1548 35.319,621.3664 C35.319,621.5617 35.4167,621.7407 35.5794,621.8709 C35.6934,621.9686 35.8236,621.9849 36.1491,621.9849 L36.3281,621.9849 L36.3281,626.77 L36.1491,626.77 C35.8398,626.77 35.7259,626.7863 35.612,626.8677 C35.4329,626.9816 35.319,627.1932 35.319,627.4048 C35.319,627.6001 35.4167,627.7791 35.5794,627.8931 C35.6771,627.9907 35.8561,628.0233 36.1491,628.0233 L42.0247,628.0233 L42.0247,626.119 C42.0247,625.8097 42.0085,625.6958 41.9434,625.5819 C41.8132,625.4028 41.6178,625.2889 41.4063,625.2889 C41.2109,625.2889 41.0156,625.3703 40.9017,625.5493 C40.804,625.6795 40.7878,625.7772 40.7878,626.119 L40.7878,626.77 L37.5814,626.77 L37.5814,624.9797 Z " fill="#000000"/><text fill="#FFFFFF" font-family="Verdana" font-size="11.4583" lengthAdjust="spacing" textLength="166.6667" x="60.6771" y="628.3442">enu_sos_scheduler_state_t_</text><line style="stroke:#EC7211;stroke-width:1.0416666666666667;" x1="8.3333" x2="251.0417" y1="641.4632" y2="641.4632"/><ellipse cx="18.75" cy="659.0698" fill="none" rx="3.125" ry="3.125" style="stroke:#038048;stroke-width:1.0416666666666667;"/><text fill="#FFFFFF" font-family="Verdana" font-size="11.4583" lengthAdjust="spacing" textLength="208.3333" x="32.2917" y="661.4741">SOS_SCHEDULER_UNINITIALIZED: 0</text><ellipse cx="18.75" cy="682.8247" fill="none" rx="3.125" ry="3.125" style="stroke:#038048;stroke-width:1.0416666666666667;"/><text fill="#FFFFFF" font-family="Verdana" font-size="11.4583" lengthAdjust="spacing" textLength="191.6667" x="32.2917" y="685.229">SOS_SCHEDULER_INITIALIZED: 1</text><ellipse cx="18.75" cy="706.5796" fill="none" rx="3.125" ry="3.125" style="stroke:#038048;stroke-width:1.0416666666666667;"/><text fill="#FFFFFF" font-family="Verdana" font-size="11.4583" lengthAdjust="spacing" textLength="180.2083" x="32.2917" y="708.9839">SOS_SCHEDULER_BLOCKED: 2</text><ellipse cx="18.75" cy="730.3345" fill="none" rx="3.125" ry="3.125" style="stroke:#038048;stroke-width:1.0416666666666667;"/><text fill="#FFFFFF" font-family="Verdana" font-size="11.4583" lengthAdjust="spacing" textLength="163.5417" x="32.2917" y="732.7387">SOS_SCHEDULER_READY: 3</text><line style="stroke:#EC7211;stroke-width:1.0416666666666667;" x1="8.3333" x2="251.0417" y1="744.8161" y2="744.8161"/></g><!--class enu_sos_status_t_--><g id="elem_enu_sos_status_t_"><rect codeLine="33" fill="url(#g15uoc5p5cohgd0)" height="217.1224" id="enu_sos_status_t_" rx="4.1667" ry="4.1667" style="stroke:#EC7211;stroke-width:1.0416666666666667;" width="240.625" x="288.5417" y="571.875"/><rect fill="url(#g15uoc5p5cohgd0)" height="34.1715" rx="4.1667" ry="4.1667" style="stroke:url(#g15uoc5p5cohgd0);stroke-width:1.0416666666666667;" width="240.625" x="288.5417" y="571.875"/><rect fill="url(#g15uoc5p5cohgd0)" height="4.1667" style="stroke:url(#g15uoc5p5cohgd0);stroke-width:1.0416666666666667;" width="240.625" x="288.5417" y="601.8799"/><rect codeLine="33" fill="none" height="217.1224" id="enu_sos_status_t_" rx="4.1667" ry="4.1667" style="stroke:#EC7211;stroke-width:1.0416666666666667;" width="240.625" x="288.5417" y="571.875"/><ellipse cx="345.8333" cy="588.9608" fill="#EB937F" rx="10.4167" ry="10.4167" style="stroke:#181818;stroke-width:1.0416666666666667;"/><path d="M345.1335,589.563 L346.1914,589.563 L346.1914,589.6606 C346.1914,589.9536 346.224,590.0675 346.2891,590.1815 C346.403,590.3768 346.6146,590.4744 346.8262,590.4744 C347.0052,590.4744 347.2005,590.3768 347.3145,590.214 C347.4121,590.1001 347.4284,589.9862 347.4284,589.6606 L347.4284,588.2446 C347.4284,588.1307 347.4284,588.0981 347.4284,587.9842 C347.3633,587.6261 347.1517,587.4146 346.8099,587.4146 C346.6146,587.4146 346.4355,587.5122 346.3053,587.675 C346.224,587.7889 346.1914,587.9028 346.1914,588.2446 L346.1914,588.326 L345.1335,588.326 L345.1335,586.5682 L348.0632,586.5682 L348.0632,587.1867 C348.0632,587.4959 348.0794,587.6261 348.1445,587.7238 C348.2747,587.9191 348.4701,588.033 348.6816,588.033 C348.877,588.033 349.0723,587.9354 349.2025,587.7726 C349.2839,587.6424 349.3164,587.5448 349.3164,587.1867 L349.3164,585.3149 L343.7012,585.3149 C343.3757,585.3149 343.278,585.3312 343.1641,585.4126 C342.985,585.5265 342.8711,585.7381 342.8711,585.9497 C342.8711,586.145 342.9688,586.3241 343.1315,586.4543 C343.2454,586.5519 343.3757,586.5682 343.7012,586.5682 L343.8802,586.5682 L343.8802,591.3534 L343.7012,591.3534 C343.3919,591.3534 343.278,591.3696 343.1641,591.451 C342.985,591.5649 342.8711,591.7765 342.8711,591.9881 C342.8711,592.1834 342.9688,592.3625 343.1315,592.4764 C343.2292,592.5741 343.4082,592.6066 343.7012,592.6066 L349.5768,592.6066 L349.5768,590.7023 C349.5768,590.3931 349.5605,590.2791 349.4954,590.1652 C349.3652,589.9862 349.1699,589.8722 348.9583,589.8722 C348.763,589.8722 348.5677,589.9536 348.4538,590.1326 C348.3561,590.2629 348.3398,590.3605 348.3398,590.7023 L348.3398,591.3534 L345.1335,591.3534 L345.1335,589.563 Z " fill="#000000"/><text fill="#FFFFFF" font-family="Verdana" font-size="11.4583" lengthAdjust="spacing" textLength="107.2917" x="370.8333" y="592.9276">enu_sos_status_t_</text><line style="stroke:#EC7211;stroke-width:1.0416666666666667;" x1="289.5833" x2="528.125" y1="606.0465" y2="606.0465"/><ellipse cx="300" cy="623.6532" fill="none" rx="3.125" ry="3.125" style="stroke:#038048;stroke-width:1.0416666666666667;"/><text fill="#FFFFFF" font-family="Verdana" font-size="11.4583" lengthAdjust="spacing" textLength="158.3333" x="313.5417" y="626.0574">SOS_STATUS_SUCCESS: 0</text><ellipse cx="300" cy="647.408" fill="none" rx="3.125" ry="3.125" style="stroke:#038048;stroke-width:1.0416666666666667;"/><text fill="#FFFFFF" font-family="Verdana" font-size="11.4583" lengthAdjust="spacing" textLength="141.6667" x="313.5417" y="649.8123">SOS_STATUS_FAILED: 1</text><ellipse cx="300" cy="671.1629" fill="none" rx="3.125" ry="3.125" style="stroke:#038048;stroke-width:1.0416666666666667;"/><text fill="#FFFFFF" font-family="Verdana" font-size="11.4583" lengthAdjust="spacing" textLength="192.7083" x="313.5417" y="673.5672">SOS_STATUS_INVALID_STATE: 2</text><ellipse cx="300" cy="694.9178" fill="none" rx="3.125" ry="3.125" style="stroke:#038048;stroke-width:1.0416666666666667;"/><text fill="#FFFFFF" font-family="Verdana" font-size="11.4583" lengthAdjust="spacing" textLength="187.5" x="313.5417" y="697.3221">SOS_STATUS_INVALID_ARGS: 3</text><ellipse cx="300" cy="718.6727" fill="none" rx="3.125" ry="3.125" style="stroke:#038048;stroke-width:1.0416666666666667;"/><text fill="#FFFFFF" font-family="Verdana" font-size="11.4583" lengthAdjust="spacing" textLength="204.1667" x="313.5417" y="721.077">SOS_STATUS_INVALID_TASK_ID: 4</text><ellipse cx="300" cy="742.4276" fill="none" rx="3.125" ry="3.125" style="stroke:#038048;stroke-width:1.0416666666666667;"/><text fill="#FFFFFF" font-family="Verdana" font-size="11.4583" lengthAdjust="spacing" textLength="200" x="313.5417" y="744.8318">SOS_STATUS_DATABASE_FULL: 5</text><ellipse cx="300" cy="766.1825" fill="none" rx="3.125" ry="3.125" style="stroke:#038048;stroke-width:1.0416666666666667;"/><text fill="#FFFFFF" font-family="Verdana" font-size="11.4583" lengthAdjust="spacing" textLength="139.5833" x="313.5417" y="768.5867">SOS_STATUS_TOTAL: 6</text><line style="stroke:#EC7211;stroke-width:1.0416666666666667;" x1="289.5833" x2="528.125" y1="780.6641" y2="780.6641"/></g><!--class str_sos_task_t_--><g id="elem_str_sos_task_t_"><rect codeLine="43" fill="url(#g15uoc5p5cohgd0)" height="145.8577" id="str_sos_task_t_" rx="4.1667" ry="4.1667" style="stroke:#EC7211;stroke-width:1.0416666666666667;" width="231.25" x="566.1458" y="607.2917"/><rect fill="url(#g15uoc5p5cohgd0)" height="34.1715" rx="4.1667" ry="4.1667" style="stroke:url(#g15uoc5p5cohgd0);stroke-width:1.0416666666666667;" width="231.25" x="566.1458" y="607.2917"/><rect fill="url(#g15uoc5p5cohgd0)" height="4.1667" style="stroke:url(#g15uoc5p5cohgd0);stroke-width:1.0416666666666667;" width="231.25" x="566.1458" y="637.2965"/><rect codeLine="43" fill="none" height="145.8577" id="str_sos_task_t_" rx="4.1667" ry="4.1667" style="stroke:#EC7211;stroke-width:1.0416666666666667;" width="231.25" x="566.1458" y="607.2917"/><ellipse cx="628.6458" cy="624.3774" fill="#F1F1F1" rx="10.4167" ry="10.4167" style="stroke:#181818;stroke-width:1.0416666666666667;"/><path d="M631.4616,621.3826 C631.4616,621.0571 631.4453,620.9595 631.3802,620.8455 C631.2826,620.6665 631.0547,620.5688 630.8431,620.5688 C630.599,620.5688 630.485,620.6665 630.3548,620.9757 C629.9316,620.6991 629.3783,620.5688 628.7435,620.5688 C627.181,620.5688 626.0254,621.5129 626.0254,622.7661 C626.0254,623.4823 626.416,624.1496 627.0508,624.5076 C627.4577,624.7355 627.8483,624.8657 628.6621,624.9959 C629.5085,625.1424 629.7201,625.1912 629.9805,625.3377 C630.2572,625.4842 630.4199,625.7284 630.4199,626.005 C630.4199,626.5422 629.7038,626.9491 628.776,626.9491 C627.946,626.9491 627.1647,626.591 627.0345,626.1353 C626.9368,625.7935 626.9368,625.7935 626.8555,625.7121 C626.7415,625.5981 626.5788,625.533 626.3997,625.533 C626.2044,625.533 626.0091,625.6307 625.8952,625.7935 C625.7975,625.9074 625.7813,626.0539 625.7813,626.3631 L625.7813,627.1932 C625.7813,627.7466 625.9766,628.007 626.416,628.007 C626.6113,628.007 626.6927,627.9582 626.9206,627.714 C627.5228,628.0396 628.1901,628.2023 628.8574,628.2023 C630.5827,628.2023 631.722,627.3234 631.722,626.0213 C631.722,625.3703 631.4941,624.8657 630.9896,624.4588 C630.599,624.1496 630.127,623.9705 629.0365,623.7752 C628.0924,623.5962 628.0436,623.5799 627.7832,623.4497 C627.5065,623.3032 627.3275,623.0265 627.3275,622.7661 C627.3275,622.229 627.946,621.8058 628.7435,621.8058 C629.5085,621.8058 630.1107,622.1476 630.2246,622.6522 C630.306,623.0428 630.306,623.0428 630.4036,623.1405 C630.5013,623.2544 630.6803,623.3195 630.8431,623.3195 C631.0384,623.3195 631.2174,623.2218 631.3477,623.0591 C631.4453,622.9289 631.4616,622.8312 631.4616,622.4894 L631.4616,621.3826 Z " fill="#000000"/><text fill="#FFFFFF" font-family="Verdana" font-size="11.4583" lengthAdjust="spacing" textLength="87.5" x="653.6458" y="628.3442">str_sos_task_t_</text><line style="stroke:#EC7211;stroke-width:1.0416666666666667;" x1="567.1875" x2="796.3542" y1="641.4632" y2="641.4632"/><ellipse cx="577.6042" cy="659.0698" fill="none" rx="3.125" ry="3.125" style="stroke:#038048;stroke-width:1.0416666666666667;"/><text fill="#FFFFFF" font-family="Verdana" font-size="11.4583" lengthAdjust="spacing" textLength="129.1667" x="591.1458" y="661.4741">uint8_task_id: uint8_t_</text><ellipse cx="577.6042" cy="682.8247" fill="none" rx="3.125" ry="3.125" style="stroke:#038048;stroke-width:1.0416666666666667;"/><text fill="#FFFFFF" font-family="Verdana" font-size="11.4583" lengthAdjust="spacing" textLength="159.375" x="591.1458" y="685.229">uint8_task_priority: uint8_t_</text><ellipse cx="577.6042" cy="706.5796" fill="none" rx="3.125" ry="3.125" style="stroke:#038048;stroke-width:1.0416666666666667;"/><text fill="#FFFFFF" font-family="Verdana" font-size="11.4583" lengthAdjust="spacing" textLength="194.7917" x="591.1458" y="708.9839">uint16_task_periodicity: uint16_t_</text><ellipse cx="577.6042" cy="730.3345" fill="none" rx="3.125" ry="3.125" style="stroke:#038048;stroke-width:1.0416666666666667;"/><text fill="#FFFFFF" font-family="Verdana" font-size="11.4583" lengthAdjust="spacing" textLength="178.125" x="591.1458" y="732.7387">ptr_func_task: ptr_func_task_t_</text><line style="stroke:#EC7211;stroke-width:1.0416666666666667;" x1="567.1875" x2="796.3542" y1="744.8161" y2="744.8161"/></g><!--link SOS to enu_sos_status_t_--><g id="link_SOS_enu_sos_status_t_"><path codeLine="50" d="M408.8542,509.6313 C408.8542,529.2042 408.8542,548.2896 408.8542,566.1729 " fill="none" id="SOS-to-enu_sos_status_t_" style="stroke:#EC7211;stroke-width:3.125;"/><polygon fill="#EC7211" points="408.8542,571.6833,413.0208,562.3083,408.8542,566.475,404.6875,562.3083,408.8542,571.6833" style="stroke:#EC7211;stroke-width:3.125;"/></g><!--link SOS to str_sos_task_t_--><g id="link_SOS_str_sos_task_t_"><path codeLine="51" d="M571.5521,509.6313 C593.35,543.1604 614.2198,575.2615 631.8208,602.3354 " fill="none" id="SOS-to-str_sos_task_t_" style="stroke:#EC7211;stroke-width:3.125;"/><polygon fill="#EC7211" points="634.8427,606.9833,633.2264,596.8522,632.004,602.6166,626.2396,601.3942,634.8427,606.9833" style="stroke:#EC7211;stroke-width:3.125;"/></g><!--link SOS to enu_sos_scheduler_state_t_--><g id="link_SOS_enu_sos_scheduler_state_t_"><path codeLine="52" d="M242.4302,509.6313 C220.1333,543.1604 198.7865,575.2615 180.7813,602.3354 " fill="none" id="SOS-to-enu_sos_scheduler_state_t_" style="stroke:#EC7211;stroke-width:3.125;"/><polygon fill="#EC7211" points="177.6906,606.9833,186.3522,601.4852,180.5752,602.6468,179.4136,596.8698,177.6906,606.9833" style="stroke:#EC7211;stroke-width:3.125;"/></g><!--SRC=[bLHjQzim4FvS_mhjMxeri3PRAVumS69dCyqIYEt1DePG92KHzKkGv9PGzj-da-qaZfDbCnWZFS_TFNU-kpTwpJEEo8lg5vBaA-wi1UE8PnkzHOmhAiL6Yo9t79eIfL0qYrwTFbgbc4Y9DrfYPLvDrDDF0-5fydKOpF5iZ6ClUen-kGXWLIXBmHfNjgN8zU0EQq6VC2tAN7FfekRoWFE0yp9RS8cBfNMWC66CiuhxiAFolBGn55rpLgOSH17DNNG6g0m1M8gSMS-zsYEe5Em6GMPDTetywmE7nasfzdvK8JLcH9C5KRptN0XcoF1fyAtIFDlhE4sf2cBbTF4LpxcquYkDFP1N5uc_DBTdDAuewzNrNGgfD7ucygQfkEAqC6KmLu8iKdxT_XKfpVx3zD2IafIMAKXURpUczkOLnLwteHtUDzc-izcANEYc24r2a6AqIwhYCVwlJ2gvaH93SU6dGhS2RMIlDNvxCL3AQ_DzguJ-1QkiO6AvFHlqWhKiyzubMK91uS_JVZkE0RA_ZCAhSGN2ej6Nm4ycPdoJQJWDuz2RX3y2tqNlEuGMVDk1XvFPw16WEzJ1ve7dVtVHe2kiaRpJ4tjnOZx9Q1H4aP5nrGR6NZYnyQ_WQMFXz9kHvzjZO7IS9NZppyRr01q-fvcmq71eudquSkLxiJVqeW2Fayd4HHyxiU9Px1dW7b8sNL1IVRmL8UNM0jflEDI6DcPKfD3RBk7slcROQH9qHm80sWNcRbdcrDBSzh7k52CQzVkVJgoG1ZbUvnsBJdlz0G00]--></g></svg>