<?xml version="1.0" encoding="us-ascii" standalone="no"?><svg xmlns="http://www.w3.org/2000/svg" xmlns:xlink="http://www.w3.org/1999/xlink" contentStyleType="text/css" height="3390.625px" preserveAspectRatio="none" style="width:1094px;height:3390px;background:#FFFFFF;" version="1.1" viewBox="0 0 1094 3390" width="1094.7917px" zoomAndPan="magnify"><defs><filter height="300%" id="fxxoi2woi82ui" width="300%" x="-1" y="-1"><feGaussianBlur result="blurOut" stdDeviation="2.0833333333333335"/><feColorMatrix in="blurOut" result="blurOut2" type="matrix" values="0 0 0 0 0 0 0 0 0 0 0 0 0 0 0 0 0 0 .4 0"/><feOffset dx="4.166666666666667" dy="4.166666666666667" in="blurOut2" result="blurOut3"/><feBlend in="SourceGraphic" in2="blurOut3" mode="normal"/></filter><linearGradient id="gxxoi2woi82ui0" x1="50%" x2="50%" y1="0%" y2="100%"><stop offset="0%" stop-color="#4DABF5"/><stop offset="100%" stop-color="#2196F3"/></linearGradient></defs><g><rect fill="#FFFFFF" filter="url(#fxxoi2woi82ui)" height="49.9674" style="stroke:#CCCCCC;stroke-width:1.0416666666666667;" width="10.4167" x="118.2292" y="2690.7552"/><rect fill="#FFFFFF" filter="url(#fxxoi2woi82ui)" height="49.9674" style="stroke:#CCCCCC;stroke-width:1.0416666666666667;" width="10.4167" x="118.2292" y="2899.9674"/><rect fill="#FFFFFF" filter="url(#fxxoi2woi82ui)" height="49.9674" style="stroke:#CCCCCC;stroke-width:1.0416666666666667;" width="10.4167" x="118.2292" y="3109.1797"/><rect fill="#FFFFFF" filter="url(#fxxoi2woi82ui)" height="249.8372" style="stroke:#CCCCCC;stroke-width:1.0416666666666667;" width="10.4167" x="316.1458" y="516.3411"/><rect fill="#FFFFFF" filter="url(#fxxoi2woi82ui)" height="156.1523" style="stroke:#CCCCCC;stroke-width:1.0416666666666667;" width="10.4167" x="316.1458" y="845.2474"/><rect fill="#FFFFFF" filter="url(#fxxoi2woi82ui)" height="26.0417" style="stroke:#CCCCCC;stroke-width:1.0416666666666667;" width="10.4167" x="321.3542" y="918.099"/><rect fill="#FFFFFF" filter="url(#fxxoi2woi82ui)" height="156.1523" style="stroke:#CCCCCC;stroke-width:1.0416666666666667;" width="10.4167" x="316.1458" y="1080.4688"/><rect fill="#FFFFFF" filter="url(#fxxoi2woi82ui)" height="26.0417" style="stroke:#CCCCCC;stroke-width:1.0416666666666667;" width="10.4167" x="321.3542" y="1153.3203"/><rect fill="#FFFFFF" filter="url(#fxxoi2woi82ui)" height="156.1523" style="stroke:#CCCCCC;stroke-width:1.0416666666666667;" width="10.4167" x="316.1458" y="1315.6901"/><rect fill="#FFFFFF" filter="url(#fxxoi2woi82ui)" height="26.0417" style="stroke:#CCCCCC;stroke-width:1.0416666666666667;" width="10.4167" x="321.3542" y="1388.5417"/><rect fill="#FFFFFF" filter="url(#fxxoi2woi82ui)" height="149.9023" style="stroke:#CCCCCC;stroke-width:1.0416666666666667;" width="10.4167" x="316.1458" y="1521.8099"/><rect fill="#FFFFFF" filter="url(#fxxoi2woi82ui)" height="149.9023" style="stroke:#CCCCCC;stroke-width:1.0416666666666667;" width="10.4167" x="316.1458" y="2095.3451"/><rect fill="#FFFFFF" filter="url(#fxxoi2woi82ui)" height="804.6224" style="stroke:#CCCCCC;stroke-width:1.0416666666666667;" width="10.4167" x="316.1458" y="2449.2513"/><rect fill="#FFFFFF" filter="url(#fxxoi2woi82ui)" height="61.4258" style="stroke:#CCCCCC;stroke-width:1.0416666666666667;" width="10.4167" x="321.3542" y="2507.5521"/><rect fill="#FFFFFF" filter="url(#fxxoi2woi82ui)" height="149.9023" style="stroke:#CCCCCC;stroke-width:1.0416666666666667;" width="10.4167" x="481.7708" y="316.4714"/><rect fill="#FFFFFF" filter="url(#fxxoi2woi82ui)" height="149.9023" style="stroke:#CCCCCC;stroke-width:1.0416666666666667;" width="10.4167" x="481.7708" y="1830.957"/><rect fill="#FFFFFF" filter="url(#fxxoi2woi82ui)" height="149.9023" style="stroke:#CCCCCC;stroke-width:1.0416666666666667;" width="10.4167" x="645.3125" y="116.6016"/><rect fill="#FFFFFF" filter="url(#fxxoi2woi82ui)" height="49.9674" style="stroke:#CCCCCC;stroke-width:1.0416666666666667;" width="10.4167" x="800.5208" y="166.569"/><rect fill="#FFFFFF" filter="url(#fxxoi2woi82ui)" height="49.9674" style="stroke:#CCCCCC;stroke-width:1.0416666666666667;" width="10.4167" x="800.5208" y="366.4388"/><rect fill="#FFFFFF" filter="url(#fxxoi2woi82ui)" height="49.9674" style="stroke:#CCCCCC;stroke-width:1.0416666666666667;" width="10.4167" x="800.5208" y="1880.9245"/><rect fill="#FFFFFF" filter="url(#fxxoi2woi82ui)" height="49.9674" style="stroke:#CCCCCC;stroke-width:1.0416666666666667;" width="10.4167" x="961.9792" y="566.3086"/><rect fill="#FFFFFF" filter="url(#fxxoi2woi82ui)" height="49.9674" style="stroke:#CCCCCC;stroke-width:1.0416666666666667;" width="10.4167" x="961.9792" y="666.2435"/><rect fill="#FFFFFF" filter="url(#fxxoi2woi82ui)" height="49.9674" style="stroke:#CCCCCC;stroke-width:1.0416666666666667;" width="10.4167" x="961.9792" y="1571.7773"/><rect fill="#FFFFFF" filter="url(#fxxoi2woi82ui)" height="49.9674" style="stroke:#CCCCCC;stroke-width:1.0416666666666667;" width="10.4167" x="961.9792" y="2145.3125"/><rect fill="#DAF0FF" filter="url(#fxxoi2woi82ui)" height="1619.6289" rx="4.1667" ry="4.1667" style="stroke:#2196F3;stroke-width:1.0416666666666667;" width="1056.25" x="20.8333" y="1687.3372"/><rect fill="#D6FDD6" filter="url(#fxxoi2woi82ui)" height="603.7109" rx="4.1667" ry="4.1667" style="stroke:#2196F3;stroke-width:1.0416666666666667;" width="1035.4167" x="31.25" y="1732.0964"/><rect fill="#D6FDD6" filter="url(#fxxoi2woi82ui)" height="294.5638" rx="4.1667" ry="4.1667" style="stroke:#2196F3;stroke-width:1.0416666666666667;" width="1014.5833" x="41.6667" y="1996.4844"/><path d="M41.6667,2253.5807 L1056.25,2253.5807 L1056.25,2286.8815 A4.1667,4.1667 0 0 1 1052.0833,2291.0482 L45.8333,2291.0482 A4.1667,4.1667 0 0 1 41.6667,2286.8815 L41.6667,2253.5807 " fill="#FFE6E6" style="stroke:none;stroke-width:1.0416666666666667;"/><path d="M31.25,2298.3398 L1066.6667,2298.3398 L1066.6667,2331.6406 A4.1667,4.1667 0 0 1 1062.5,2335.8073 L35.4167,2335.8073 A4.1667,4.1667 0 0 1 31.25,2331.6406 L31.25,2298.3398 " fill="#FFE6E6" style="stroke:none;stroke-width:1.0416666666666667;"/><rect fill="#D6FDD6" filter="url(#fxxoi2woi82ui)" height="949.2839" rx="4.1667" ry="4.1667" style="stroke:#2196F3;stroke-width:1.0416666666666667;" width="1025" x="31.25" y="2350.3906"/><rect fill="#D6FDD6" filter="url(#fxxoi2woi82ui)" height="194.6289" rx="4.1667" ry="4.1667" style="stroke:#2196F3;stroke-width:1.0416666666666667;" width="425" x="41.6667" y="2591.8945"/><path d="M41.6667,2749.056 L466.6667,2749.056 L466.6667,2782.3568 A4.1667,4.1667 0 0 1 462.5,2786.5234 L45.8333,2786.5234 A4.1667,4.1667 0 0 1 41.6667,2782.3568 L41.6667,2749.056 " fill="#FFE6E6" style="stroke:none;stroke-width:1.0416666666666667;"/><rect fill="#D6FDD6" filter="url(#fxxoi2woi82ui)" height="194.6289" rx="4.1667" ry="4.1667" style="stroke:#2196F3;stroke-width:1.0416666666666667;" width="405.2083" x="41.6667" y="2801.1068"/><path d="M41.6667,2958.2682 L446.875,2958.2682 L446.875,2991.569 A4.1667,4.1667 0 0 1 442.7083,2995.7357 L45.8333,2995.7357 A4.1667,4.1667 0 0 1 41.6667,2991.569 L41.6667,2958.2682 " fill="#FFE6E6" style="stroke:none;stroke-width:1.0416666666666667;"/><rect fill="#D6FDD6" filter="url(#fxxoi2woi82ui)" height="194.6289" rx="4.1667" ry="4.1667" style="stroke:#2196F3;stroke-width:1.0416666666666667;" width="404.1667" x="41.6667" y="3010.319"/><path d="M41.6667,3167.4805 L445.8333,3167.4805 L445.8333,3200.7813 A4.1667,4.1667 0 0 1 441.6667,3204.9479 L45.8333,3204.9479 A4.1667,4.1667 0 0 1 41.6667,3200.7813 L41.6667,3167.4805 " fill="#FFE6E6" style="stroke:none;stroke-width:1.0416666666666667;"/><path d="M31.25,3262.207 L1056.25,3262.207 L1056.25,3295.5078 A4.1667,4.1667 0 0 1 1052.0833,3299.6745 L35.4167,3299.6745 A4.1667,4.1667 0 0 1 31.25,3295.5078 L31.25,3262.207 " fill="#FFE6E6" style="stroke:none;stroke-width:1.0416666666666667;"/><line style="stroke:#CCCCCC;stroke-width:1.0416666666666667;stroke-dasharray:5.0,5.0;" x1="122.9167" x2="122.9167" y1="64.5508" y2="3324.6745"/><line style="stroke:#CCCCCC;stroke-width:1.0416666666666667;stroke-dasharray:5.0,5.0;" x1="320.8333" x2="320.8333" y1="64.5508" y2="3324.6745"/><line style="stroke:#CCCCCC;stroke-width:1.0416666666666667;stroke-dasharray:5.0,5.0;" x1="486.4583" x2="486.4583" y1="64.5508" y2="3324.6745"/><line style="stroke:#CCCCCC;stroke-width:1.0416666666666667;stroke-dasharray:5.0,5.0;" x1="650" x2="650" y1="64.5508" y2="3324.6745"/><line style="stroke:#CCCCCC;stroke-width:1.0416666666666667;stroke-dasharray:5.0,5.0;" x1="805.2083" x2="805.2083" y1="64.5508" y2="3324.6745"/><line style="stroke:#CCCCCC;stroke-width:1.0416666666666667;stroke-dasharray:5.0,5.0;" x1="966.6667" x2="966.6667" y1="64.5508" y2="3324.6745"/><rect fill="url(#gxxoi2woi82ui0)" filter="url(#fxxoi2woi82ui)" height="49.9674" rx="4.1667" ry="4.1667" style="stroke:#2196F3;stroke-width:1.0416666666666667;" width="56.25" x="93.75" y="10.4167"/><text fill="#FFFFFF" font-family="Verdana" font-size="12.5" lengthAdjust="spacing" textLength="20.8333" x="111.4583" y="39.7278">APP</text><rect fill="url(#gxxoi2woi82ui0)" filter="url(#fxxoi2woi82ui)" height="49.9674" rx="4.1667" ry="4.1667" style="stroke:#2196F3;stroke-width:1.0416666666666667;" width="56.25" x="93.75" y="3323.6328"/><text fill="#FFFFFF" font-family="Verdana" font-size="12.5" lengthAdjust="spacing" textLength="20.8333" x="111.4583" y="3352.9439">APP</text><rect fill="url(#gxxoi2woi82ui0)" filter="url(#fxxoi2woi82ui)" height="49.9674" rx="4.1667" ry="4.1667" style="stroke:#2196F3;stroke-width:1.0416666666666667;" width="62.5" x="288.5417" y="10.4167"/><text fill="#FFFFFF" font-family="Verdana" font-size="12.5" lengthAdjust="spacing" textLength="27.0833" x="306.25" y="39.7278">SOS</text><rect fill="url(#gxxoi2woi82ui0)" filter="url(#fxxoi2woi82ui)" height="49.9674" rx="4.1667" ry="4.1667" style="stroke:#2196F3;stroke-width:1.0416666666666667;" width="62.5" x="288.5417" y="3323.6328"/><text fill="#FFFFFF" font-family="Verdana" font-size="12.5" lengthAdjust="spacing" textLength="27.0833" x="306.25" y="3352.9439">SOS</text><rect fill="url(#gxxoi2woi82ui0)" filter="url(#fxxoi2woi82ui)" height="49.9674" rx="4.1667" ry="4.1667" style="stroke:#2196F3;stroke-width:1.0416666666666667;" width="75" x="447.9167" y="10.4167"/><text fill="#FFFFFF" font-family="Verdana" font-size="12.5" lengthAdjust="spacing" textLength="39.5833" x="465.625" y="39.7278">Button</text><rect fill="url(#gxxoi2woi82ui0)" filter="url(#fxxoi2woi82ui)" height="49.9674" rx="4.1667" ry="4.1667" style="stroke:#2196F3;stroke-width:1.0416666666666667;" width="75" x="447.9167" y="3323.6328"/><text fill="#FFFFFF" font-family="Verdana" font-size="12.5" lengthAdjust="spacing" textLength="39.5833" x="465.625" y="3352.9439">Button</text><rect fill="url(#gxxoi2woi82ui0)" filter="url(#fxxoi2woi82ui)" height="49.9674" rx="4.1667" ry="4.1667" style="stroke:#2196F3;stroke-width:1.0416666666666667;" width="58.3333" x="619.7917" y="10.4167"/><text fill="#FFFFFF" font-family="Verdana" font-size="12.5" lengthAdjust="spacing" textLength="22.9167" x="637.5" y="39.7278">LED</text><rect fill="url(#gxxoi2woi82ui0)" filter="url(#fxxoi2woi82ui)" height="49.9674" rx="4.1667" ry="4.1667" style="stroke:#2196F3;stroke-width:1.0416666666666667;" width="58.3333" x="619.7917" y="3323.6328"/><text fill="#FFFFFF" font-family="Verdana" font-size="12.5" lengthAdjust="spacing" textLength="22.9167" x="637.5" y="3352.9439">LED</text><rect fill="url(#gxxoi2woi82ui0)" filter="url(#fxxoi2woi82ui)" height="49.9674" rx="4.1667" ry="4.1667" style="stroke:#2196F3;stroke-width:1.0416666666666667;" width="58.3333" x="775" y="10.4167"/><text fill="#FFFFFF" font-family="Verdana" font-size="12.5" lengthAdjust="spacing" textLength="22.9167" x="792.7083" y="39.7278">DIO</text><rect fill="url(#gxxoi2woi82ui0)" filter="url(#fxxoi2woi82ui)" height="49.9674" rx="4.1667" ry="4.1667" style="stroke:#2196F3;stroke-width:1.0416666666666667;" width="58.3333" x="775" y="3323.6328"/><text fill="#FFFFFF" font-family="Verdana" font-size="12.5" lengthAdjust="spacing" textLength="22.9167" x="792.7083" y="3352.9439">DIO</text><rect fill="url(#gxxoi2woi82ui0)" filter="url(#fxxoi2woi82ui)" height="49.9674" rx="4.1667" ry="4.1667" style="stroke:#2196F3;stroke-width:1.0416666666666667;" width="70.8333" x="930.2083" y="10.4167"/><text fill="#FFFFFF" font-family="Verdana" font-size="12.5" lengthAdjust="spacing" textLength="35.4167" x="947.9167" y="39.7278">Timer</text><rect fill="url(#gxxoi2woi82ui0)" filter="url(#fxxoi2woi82ui)" height="49.9674" rx="4.1667" ry="4.1667" style="stroke:#2196F3;stroke-width:1.0416666666666667;" width="70.8333" x="930.2083" y="3323.6328"/><text fill="#FFFFFF" font-family="Verdana" font-size="12.5" lengthAdjust="spacing" textLength="35.4167" x="947.9167" y="3352.9439">Timer</text><rect fill="#FFFFFF" filter="url(#fxxoi2woi82ui)" height="49.9674" style="stroke:#CCCCCC;stroke-width:1.0416666666666667;" width="10.4167" x="118.2292" y="2690.7552"/><rect fill="#FFFFFF" filter="url(#fxxoi2woi82ui)" height="49.9674" style="stroke:#CCCCCC;stroke-width:1.0416666666666667;" width="10.4167" x="118.2292" y="2899.9674"/><rect fill="#FFFFFF" filter="url(#fxxoi2woi82ui)" height="49.9674" style="stroke:#CCCCCC;stroke-width:1.0416666666666667;" width="10.4167" x="118.2292" y="3109.1797"/><rect fill="#FFFFFF" filter="url(#fxxoi2woi82ui)" height="249.8372" style="stroke:#CCCCCC;stroke-width:1.0416666666666667;" width="10.4167" x="316.1458" y="516.3411"/><rect fill="#FFFFFF" filter="url(#fxxoi2woi82ui)" height="156.1523" style="stroke:#CCCCCC;stroke-width:1.0416666666666667;" width="10.4167" x="316.1458" y="845.2474"/><rect fill="#FFFFFF" filter="url(#fxxoi2woi82ui)" height="26.0417" style="stroke:#CCCCCC;stroke-width:1.0416666666666667;" width="10.4167" x="321.3542" y="918.099"/><rect fill="#FFFFFF" filter="url(#fxxoi2woi82ui)" height="156.1523" style="stroke:#CCCCCC;stroke-width:1.0416666666666667;" width="10.4167" x="316.1458" y="1080.4688"/><rect fill="#FFFFFF" filter="url(#fxxoi2woi82ui)" height="26.0417" style="stroke:#CCCCCC;stroke-width:1.0416666666666667;" width="10.4167" x="321.3542" y="1153.3203"/><rect fill="#FFFFFF" filter="url(#fxxoi2woi82ui)" height="156.1523" style="stroke:#CCCCCC;stroke-width:1.0416666666666667;" width="10.4167" x="316.1458" y="1315.6901"/><rect fill="#FFFFFF" filter="url(#fxxoi2woi82ui)" height="26.0417" style="stroke:#CCCCCC;stroke-width:1.0416666666666667;" width="10.4167" x="321.3542" y="1388.5417"/><rect fill="#FFFFFF" filter="url(#fxxoi2woi82ui)" height="149.9023" style="stroke:#CCCCCC;stroke-width:1.0416666666666667;" width="10.4167" x="316.1458" y="1521.8099"/><rect fill="#FFFFFF" filter="url(#fxxoi2woi82ui)" height="149.9023" style="stroke:#CCCCCC;stroke-width:1.0416666666666667;" width="10.4167" x="316.1458" y="2095.3451"/><rect fill="#FFFFFF" filter="url(#fxxoi2woi82ui)" height="804.6224" style="stroke:#CCCCCC;stroke-width:1.0416666666666667;" width="10.4167" x="316.1458" y="2449.2513"/><rect fill="#FFFFFF" filter="url(#fxxoi2woi82ui)" height="61.4258" style="stroke:#CCCCCC;stroke-width:1.0416666666666667;" width="10.4167" x="321.3542" y="2507.5521"/><rect fill="#FFFFFF" filter="url(#fxxoi2woi82ui)" height="149.9023" style="stroke:#CCCCCC;stroke-width:1.0416666666666667;" width="10.4167" x="481.7708" y="316.4714"/><rect fill="#FFFFFF" filter="url(#fxxoi2woi82ui)" height="149.9023" style="stroke:#CCCCCC;stroke-width:1.0416666666666667;" width="10.4167" x="481.7708" y="1830.957"/><rect fill="#FFFFFF" filter="url(#fxxoi2woi82ui)" height="149.9023" style="stroke:#CCCCCC;stroke-width:1.0416666666666667;" width="10.4167" x="645.3125" y="116.6016"/><rect fill="#FFFFFF" filter="url(#fxxoi2woi82ui)" height="49.9674" style="stroke:#CCCCCC;stroke-width:1.0416666666666667;" width="10.4167" x="800.5208" y="166.569"/><rect fill="#FFFFFF" filter="url(#fxxoi2woi82ui)" height="49.9674" style="stroke:#CCCCCC;stroke-width:1.0416666666666667;" width="10.4167" x="800.5208" y="366.4388"/><rect fill="#FFFFFF" filter="url(#fxxoi2woi82ui)" height="49.9674" style="stroke:#CCCCCC;stroke-width:1.0416666666666667;" width="10.4167" x="800.5208" y="1880.9245"/><rect fill="#FFFFFF" filter="url(#fxxoi2woi82ui)" height="49.9674" style="stroke:#CCCCCC;stroke-width:1.0416666666666667;" width="10.4167" x="961.9792" y="566.3086"/><rect fill="#FFFFFF" filter="url(#fxxoi2woi82ui)" height="49.9674" style="stroke:#CCCCCC;stroke-width:1.0416666666666667;" width="10.4167" x="961.9792" y="666.2435"/><rect fill="#FFFFFF" filter="url(#fxxoi2woi82ui)" height="49.9674" style="stroke:#CCCCCC;stroke-width:1.0416666666666667;" width="10.4167" x="961.9792" y="1571.7773"/><rect fill="#FFFFFF" filter="url(#fxxoi2woi82ui)" height="49.9674" style="stroke:#CCCCCC;stroke-width:1.0416666666666667;" width="10.4167" x="961.9792" y="2145.3125"/><polygon fill="#2196F3" points="632.8125,112.4349,643.2292,116.6016,632.8125,120.7682,636.9792,116.6016" style="stroke:#2196F3;stroke-width:1.0416666666666667;"/><line style="stroke:#2196F3;stroke-width:3.125;" x1="123.4375" x2="639.0625" y1="116.6016" y2="116.6016"/><text fill="#222222" font-family="Verdana" font-size="12.5" lengthAdjust="spacing" textLength="81.25" x="141.1458" y="101.1536">Initalize LEDs</text><polygon fill="#2196F3" points="788.0208,162.4023,798.4375,166.569,788.0208,170.7357,792.1875,166.569" style="stroke:#2196F3;stroke-width:1.0416666666666667;"/><line style="stroke:#2196F3;stroke-width:3.125;" x1="655.7292" x2="794.2708" y1="166.569" y2="166.569"/><text fill="#222222" font-family="Verdana" font-size="12.5" lengthAdjust="spacing" textLength="73.9583" x="673.4375" y="151.121">Initalize DIO</text><polygon fill="#2196F3" points="667.1875,212.3698,656.7708,216.5365,667.1875,220.7031,663.0208,216.5365" style="stroke:#2196F3;stroke-width:1.0416666666666667;"/><line style="stroke:#2196F3;stroke-width:3.125;stroke-dasharray:2.0,2.0;" x1="660.9375" x2="804.6875" y1="216.5365" y2="216.5365"/><text fill="#222222" font-family="Verdana" font-size="12.5" lengthAdjust="spacing" textLength="47.9167" x="683.8542" y="201.0885">DIO_OK</text><polygon fill="#2196F3" points="134.8958,262.3372,124.4792,266.5039,134.8958,270.6706,130.7292,266.5039" style="stroke:#2196F3;stroke-width:1.0416666666666667;"/><line style="stroke:#2196F3;stroke-width:3.125;stroke-dasharray:2.0,2.0;" x1="128.6458" x2="649.4792" y1="266.5039" y2="266.5039"/><text fill="#222222" font-family="Verdana" font-size="12.5" lengthAdjust="spacing" textLength="47.9167" x="151.5625" y="251.0559">LED_OK</text><polygon fill="#2196F3" points="469.2708,312.3047,479.6875,316.4714,469.2708,320.638,473.4375,316.4714" style="stroke:#2196F3;stroke-width:1.0416666666666667;"/><line style="stroke:#2196F3;stroke-width:3.125;" x1="123.4375" x2="475.5208" y1="316.4714" y2="316.4714"/><text fill="#222222" font-family="Verdana" font-size="12.5" lengthAdjust="spacing" textLength="101.0417" x="141.1458" y="301.0234">Initialize Buttons</text><polygon fill="#2196F3" points="788.0208,362.2721,798.4375,366.4388,788.0208,370.6055,792.1875,366.4388" style="stroke:#2196F3;stroke-width:1.0416666666666667;"/><line style="stroke:#2196F3;stroke-width:3.125;" x1="492.1875" x2="794.2708" y1="366.4388" y2="366.4388"/><text fill="#222222" font-family="Verdana" font-size="12.5" lengthAdjust="spacing" textLength="77.0833" x="509.8958" y="350.9908">Initialize DIO</text><polygon fill="#2196F3" points="503.6458,412.2396,493.2292,416.4063,503.6458,420.5729,499.4792,416.4063" style="stroke:#2196F3;stroke-width:1.0416666666666667;"/><line style="stroke:#2196F3;stroke-width:3.125;stroke-dasharray:2.0,2.0;" x1="497.3958" x2="804.6875" y1="416.4063" y2="416.4063"/><text fill="#222222" font-family="Verdana" font-size="12.5" lengthAdjust="spacing" textLength="47.9167" x="520.3125" y="400.9583">DIO_OK</text><polygon fill="#2196F3" points="134.8958,462.207,124.4792,466.3737,134.8958,470.5404,130.7292,466.3737" style="stroke:#2196F3;stroke-width:1.0416666666666667;"/><line style="stroke:#2196F3;stroke-width:3.125;stroke-dasharray:2.0,2.0;" x1="128.6458" x2="485.9375" y1="466.3737" y2="466.3737"/><text fill="#222222" font-family="Verdana" font-size="12.5" lengthAdjust="spacing" textLength="76.0417" x="151.5625" y="450.9257">BUTTON_OK</text><polygon fill="#2196F3" points="303.6458,512.1745,314.0625,516.3411,303.6458,520.5078,307.8125,516.3411" style="stroke:#2196F3;stroke-width:1.0416666666666667;"/><line style="stroke:#2196F3;stroke-width:3.125;" x1="123.4375" x2="309.8958" y1="516.3411" y2="516.3411"/><text fill="#222222" font-family="Verdana" font-size="12.5" lengthAdjust="spacing" textLength="81.25" x="141.1458" y="500.8931">Initialize SOS</text><polygon fill="#2196F3" points="949.4792,562.1419,959.8958,566.3086,949.4792,570.4753,953.6458,566.3086" style="stroke:#2196F3;stroke-width:1.0416666666666667;"/><line style="stroke:#2196F3;stroke-width:3.125;" x1="326.5625" x2="955.7292" y1="566.3086" y2="566.3086"/><text fill="#222222" font-family="Verdana" font-size="12.5" lengthAdjust="spacing" textLength="86.4583" x="344.2708" y="550.8606">Initialize timer</text><polygon fill="#2196F3" points="338.0208,612.1094,327.6042,616.276,338.0208,620.4427,333.8542,616.276" style="stroke:#2196F3;stroke-width:1.0416666666666667;"/><line style="stroke:#2196F3;stroke-width:3.125;stroke-dasharray:2.0,2.0;" x1="331.7708" x2="966.1458" y1="616.276" y2="616.276"/><text fill="#222222" font-family="Verdana" font-size="12.5" lengthAdjust="spacing" textLength="60.4167" x="354.6875" y="600.828">TIMER_OK</text><polygon fill="#2196F3" points="949.4792,662.0768,959.8958,666.2435,949.4792,670.4102,953.6458,666.2435" style="stroke:#2196F3;stroke-width:1.0416666666666667;"/><line style="stroke:#2196F3;stroke-width:3.125;" x1="326.5625" x2="955.7292" y1="666.2435" y2="666.2435"/><text fill="#222222" font-family="Verdana" font-size="12.5" lengthAdjust="spacing" textLength="131.25" x="344.2708" y="650.7955">set tick time = 20ms</text><polygon fill="#2196F3" points="338.0208,712.0443,327.6042,716.2109,338.0208,720.3776,333.8542,716.2109" style="stroke:#2196F3;stroke-width:1.0416666666666667;"/><line style="stroke:#2196F3;stroke-width:3.125;stroke-dasharray:2.0,2.0;" x1="331.7708" x2="966.1458" y1="716.2109" y2="716.2109"/><text fill="#222222" font-family="Verdana" font-size="12.5" lengthAdjust="spacing" textLength="60.4167" x="354.6875" y="700.7629">TIMER_OK</text><polygon fill="#2196F3" points="134.8958,762.0117,124.4792,766.1784,134.8958,770.3451,130.7292,766.1784" style="stroke:#2196F3;stroke-width:1.0416666666666667;"/><line style="stroke:#2196F3;stroke-width:3.125;stroke-dasharray:2.0,2.0;" x1="128.6458" x2="320.3125" y1="766.1784" y2="766.1784"/><text fill="#222222" font-family="Verdana" font-size="12.5" lengthAdjust="spacing" textLength="52.0833" x="151.5625" y="750.7304">SOS_OK</text><polygon fill="#2196F3" points="303.6458,841.0807,314.0625,845.2474,303.6458,849.4141,307.8125,845.2474" style="stroke:#2196F3;stroke-width:1.0416666666666667;"/><line style="stroke:#2196F3;stroke-width:3.125;" x1="123.4375" x2="309.8958" y1="845.2474" y2="845.2474"/><text fill="#222222" font-family="Verdana" font-size="12.5" lengthAdjust="spacing" textLength="139.5833" x="141.1458" y="800.6978">create task LED0Task,</text><text fill="#222222" font-family="Verdana" font-size="12.5" lengthAdjust="spacing" textLength="112.5" x="141.1458" y="815.2486">Periodicity = 300,</text><text fill="#222222" font-family="Verdana" font-size="12.5" lengthAdjust="spacing" textLength="69.7917" x="141.1458" y="829.7994">Priority = 2</text><line style="stroke:#2196F3;stroke-width:3.125;" x1="326.5625" x2="375.5208" y1="904.5573" y2="904.5573"/><line style="stroke:#2196F3;stroke-width:3.125;" x1="375.5208" x2="375.5208" y1="904.5573" y2="918.099"/><line style="stroke:#2196F3;stroke-width:3.125;" x1="332.8125" x2="375.5208" y1="918.099" y2="918.099"/><polygon fill="#2196F3" points="343.2292,913.9323,332.8125,918.099,343.2292,922.2656,339.0625,918.099" style="stroke:#2196F3;stroke-width:1.0416666666666667;"/><text fill="#222222" font-family="Verdana" font-size="12.5" lengthAdjust="spacing" textLength="96.875" x="349.4792" y="874.5585">save task in DB</text><text fill="#222222" font-family="Verdana" font-size="12.5" lengthAdjust="spacing" textLength="105.2083" x="349.4792" y="889.1093">+ State = READY</text><line style="stroke:#2196F3;stroke-width:3.125;stroke-dasharray:2.0,2.0;" x1="331.7708" x2="375.5208" y1="943.099" y2="943.099"/><line style="stroke:#2196F3;stroke-width:3.125;stroke-dasharray:2.0,2.0;" x1="375.5208" x2="375.5208" y1="943.099" y2="956.6406"/><line style="stroke:#2196F3;stroke-width:3.125;stroke-dasharray:2.0,2.0;" x1="326.5625" x2="375.5208" y1="956.6406" y2="956.6406"/><polygon fill="#2196F3" points="336.9792,952.474,326.5625,956.6406,336.9792,960.8073,332.8125,956.6406" style="stroke:#2196F3;stroke-width:1.0416666666666667;"/><polygon fill="#2196F3" points="134.8958,997.2331,124.4792,1001.3997,134.8958,1005.5664,130.7292,1001.3997" style="stroke:#2196F3;stroke-width:1.0416666666666667;"/><line style="stroke:#2196F3;stroke-width:3.125;stroke-dasharray:2.0,2.0;" x1="128.6458" x2="320.3125" y1="1001.3997" y2="1001.3997"/><text fill="#222222" font-family="Verdana" font-size="12.5" lengthAdjust="spacing" textLength="58.3333" x="151.5625" y="985.9517">SUCCESS</text><polygon fill="#2196F3" points="303.6458,1076.3021,314.0625,1080.4688,303.6458,1084.6354,307.8125,1080.4688" style="stroke:#2196F3;stroke-width:1.0416666666666667;"/><line style="stroke:#2196F3;stroke-width:3.125;" x1="123.4375" x2="309.8958" y1="1080.4688" y2="1080.4688"/><text fill="#222222" font-family="Verdana" font-size="12.5" lengthAdjust="spacing" textLength="138.5417" x="141.1458" y="1035.9192">create task LED1Task,</text><text fill="#222222" font-family="Verdana" font-size="12.5" lengthAdjust="spacing" textLength="112.5" x="141.1458" y="1050.47">Periodicity = 500,</text><text fill="#222222" font-family="Verdana" font-size="12.5" lengthAdjust="spacing" textLength="68.75" x="141.1458" y="1065.0208">Priority = 1</text><line style="stroke:#2196F3;stroke-width:3.125;" x1="326.5625" x2="375.5208" y1="1139.7786" y2="1139.7786"/><line style="stroke:#2196F3;stroke-width:3.125;" x1="375.5208" x2="375.5208" y1="1139.7786" y2="1153.3203"/><line style="stroke:#2196F3;stroke-width:3.125;" x1="332.8125" x2="375.5208" y1="1153.3203" y2="1153.3203"/><polygon fill="#2196F3" points="343.2292,1149.1536,332.8125,1153.3203,343.2292,1157.487,339.0625,1153.3203" style="stroke:#2196F3;stroke-width:1.0416666666666667;"/><text fill="#222222" font-family="Verdana" font-size="12.5" lengthAdjust="spacing" textLength="96.875" x="349.4792" y="1109.7799">save task in DB</text><text fill="#222222" font-family="Verdana" font-size="12.5" lengthAdjust="spacing" textLength="105.2083" x="349.4792" y="1124.3306">+ State = READY</text><line style="stroke:#2196F3;stroke-width:3.125;stroke-dasharray:2.0,2.0;" x1="331.7708" x2="375.5208" y1="1178.3203" y2="1178.3203"/><line style="stroke:#2196F3;stroke-width:3.125;stroke-dasharray:2.0,2.0;" x1="375.5208" x2="375.5208" y1="1178.3203" y2="1191.862"/><line style="stroke:#2196F3;stroke-width:3.125;stroke-dasharray:2.0,2.0;" x1="326.5625" x2="375.5208" y1="1191.862" y2="1191.862"/><polygon fill="#2196F3" points="336.9792,1187.6953,326.5625,1191.862,336.9792,1196.0286,332.8125,1191.862" style="stroke:#2196F3;stroke-width:1.0416666666666667;"/><polygon fill="#2196F3" points="134.8958,1232.4544,124.4792,1236.6211,134.8958,1240.7878,130.7292,1236.6211" style="stroke:#2196F3;stroke-width:1.0416666666666667;"/><line style="stroke:#2196F3;stroke-width:3.125;stroke-dasharray:2.0,2.0;" x1="128.6458" x2="320.3125" y1="1236.6211" y2="1236.6211"/><text fill="#222222" font-family="Verdana" font-size="12.5" lengthAdjust="spacing" textLength="58.3333" x="151.5625" y="1221.1731">SUCCESS</text><polygon fill="#2196F3" points="303.6458,1311.5234,314.0625,1315.6901,303.6458,1319.8568,307.8125,1315.6901" style="stroke:#2196F3;stroke-width:1.0416666666666667;"/><line style="stroke:#2196F3;stroke-width:3.125;" x1="123.4375" x2="309.8958" y1="1315.6901" y2="1315.6901"/><text fill="#222222" font-family="Verdana" font-size="12.5" lengthAdjust="spacing" textLength="147.9167" x="141.1458" y="1271.1405">create task buttonTask,</text><text fill="#222222" font-family="Verdana" font-size="12.5" lengthAdjust="spacing" textLength="100" x="141.1458" y="1285.6913">Periodicity = 20</text><text fill="#222222" font-family="Verdana" font-size="12.5" lengthAdjust="spacing" textLength="66.6667" x="141.1458" y="1300.2421">Priorty = 3</text><line style="stroke:#2196F3;stroke-width:3.125;" x1="326.5625" x2="375.5208" y1="1375" y2="1375"/><line style="stroke:#2196F3;stroke-width:3.125;" x1="375.5208" x2="375.5208" y1="1375" y2="1388.5417"/><line style="stroke:#2196F3;stroke-width:3.125;" x1="332.8125" x2="375.5208" y1="1388.5417" y2="1388.5417"/><polygon fill="#2196F3" points="343.2292,1384.375,332.8125,1388.5417,343.2292,1392.7083,339.0625,1388.5417" style="stroke:#2196F3;stroke-width:1.0416666666666667;"/><text fill="#222222" font-family="Verdana" font-size="12.5" lengthAdjust="spacing" textLength="96.875" x="349.4792" y="1345.0012">save task in DB</text><text fill="#222222" font-family="Verdana" font-size="12.5" lengthAdjust="spacing" textLength="105.2083" x="349.4792" y="1359.552">+ State = READY</text><line style="stroke:#2196F3;stroke-width:3.125;stroke-dasharray:2.0,2.0;" x1="331.7708" x2="375.5208" y1="1413.5417" y2="1413.5417"/><line style="stroke:#2196F3;stroke-width:3.125;stroke-dasharray:2.0,2.0;" x1="375.5208" x2="375.5208" y1="1413.5417" y2="1427.0833"/><line style="stroke:#2196F3;stroke-width:3.125;stroke-dasharray:2.0,2.0;" x1="326.5625" x2="375.5208" y1="1427.0833" y2="1427.0833"/><polygon fill="#2196F3" points="336.9792,1422.9167,326.5625,1427.0833,336.9792,1431.25,332.8125,1427.0833" style="stroke:#2196F3;stroke-width:1.0416666666666667;"/><polygon fill="#2196F3" points="134.8958,1467.6758,124.4792,1471.8424,134.8958,1476.0091,130.7292,1471.8424" style="stroke:#2196F3;stroke-width:1.0416666666666667;"/><line style="stroke:#2196F3;stroke-width:3.125;stroke-dasharray:2.0,2.0;" x1="128.6458" x2="320.3125" y1="1471.8424" y2="1471.8424"/><text fill="#222222" font-family="Verdana" font-size="12.5" lengthAdjust="spacing" textLength="58.3333" x="151.5625" y="1456.3944">SUCCESS</text><polygon fill="#2196F3" points="303.6458,1517.6432,314.0625,1521.8099,303.6458,1525.9766,307.8125,1521.8099" style="stroke:#2196F3;stroke-width:1.0416666666666667;"/><line style="stroke:#2196F3;stroke-width:3.125;" x1="123.4375" x2="309.8958" y1="1521.8099" y2="1521.8099"/><text fill="#222222" font-family="Verdana" font-size="12.5" lengthAdjust="spacing" textLength="86.4583" x="141.1458" y="1506.3619">run scheduler</text><polygon fill="#2196F3" points="949.4792,1567.6107,959.8958,1571.7773,949.4792,1575.944,953.6458,1571.7773" style="stroke:#2196F3;stroke-width:1.0416666666666667;"/><line style="stroke:#2196F3;stroke-width:3.125;" x1="326.5625" x2="955.7292" y1="1571.7773" y2="1571.7773"/><text fill="#222222" font-family="Verdana" font-size="12.5" lengthAdjust="spacing" textLength="64.5833" x="344.2708" y="1556.3293">start timer</text><polygon fill="#2196F3" points="338.0208,1617.5781,327.6042,1621.7448,338.0208,1625.9115,333.8542,1621.7448" style="stroke:#2196F3;stroke-width:1.0416666666666667;"/><line style="stroke:#2196F3;stroke-width:3.125;stroke-dasharray:2.0,2.0;" x1="331.7708" x2="966.1458" y1="1621.7448" y2="1621.7448"/><text fill="#222222" font-family="Verdana" font-size="12.5" lengthAdjust="spacing" textLength="60.4167" x="354.6875" y="1606.2968">TIMER_OK</text><polygon fill="#2196F3" points="134.8958,1667.5456,124.4792,1671.7122,134.8958,1675.8789,130.7292,1671.7122" style="stroke:#2196F3;stroke-width:1.0416666666666667;"/><line style="stroke:#2196F3;stroke-width:3.125;stroke-dasharray:2.0,2.0;" x1="128.6458" x2="320.3125" y1="1671.7122" y2="1671.7122"/><text fill="#222222" font-family="Verdana" font-size="12.5" lengthAdjust="spacing" textLength="58.3333" x="151.5625" y="1656.2642">SUCCESS</text><path d="M25,1687.3372 L120.8333,1687.3372 L120.8333,1714.388 L110.4167,1724.8047 L20.8333,1724.8047 L20.8333,1691.5039 A4.1667,4.1667 0 0 1 25,1687.3372 " fill="#6AC5FE" style="stroke:#666666;stroke-width:1.0416666666666667;"/><rect fill="none" height="1619.6289" rx="4.1667" ry="4.1667" style="stroke:#2196F3;stroke-width:1.0416666666666667;" width="1056.25" x="20.8333" y="1687.3372"/><text fill="#9C27B0" font-family="Verdana" font-size="12.5" font-weight="bold" lengthAdjust="spacing" textLength="32.2917" x="46.875" y="1710.3984">loop</text><path d="M35.4167,1732.0964 L119.7917,1732.0964 L119.7917,1759.1471 L109.375,1769.5638 L31.25,1769.5638 L31.25,1736.263 A4.1667,4.1667 0 0 1 35.4167,1732.0964 " fill="#FFFF3D" style="stroke:#666666;stroke-width:1.0416666666666667;"/><rect fill="none" height="603.7109" rx="4.1667" ry="4.1667" style="stroke:#2196F3;stroke-width:1.0416666666666667;" width="1035.4167" x="31.25" y="1732.0964"/><text fill="#9C27B0" font-family="Verdana" font-size="12.5" font-weight="bold" lengthAdjust="spacing" textLength="20.8333" x="57.2917" y="1755.1575">alt</text><text fill="#222222" font-family="Verdana" font-size="12.5" font-weight="bold" lengthAdjust="spacing" textLength="122.9167" x="145.8333" y="1756.1991">[App is stopped]</text><polygon fill="#2196F3" points="469.2708,1826.7904,479.6875,1830.957,469.2708,1835.1237,473.4375,1830.957" style="stroke:#2196F3;stroke-width:1.0416666666666667;"/><line style="stroke:#2196F3;stroke-width:3.125;" x1="123.4375" x2="475.5208" y1="1830.957" y2="1830.957"/><text fill="#222222" font-family="Verdana" font-size="12.5" lengthAdjust="spacing" textLength="111.4583" x="141.1458" y="1815.509">get button 1 state</text><polygon fill="#2196F3" points="788.0208,1876.7578,798.4375,1880.9245,788.0208,1885.0911,792.1875,1880.9245" style="stroke:#2196F3;stroke-width:1.0416666666666667;"/><line style="stroke:#2196F3;stroke-width:3.125;" x1="492.1875" x2="794.2708" y1="1880.9245" y2="1880.9245"/><text fill="#222222" font-family="Verdana" font-size="12.5" lengthAdjust="spacing" textLength="81.25" x="509.8958" y="1865.4765">get pin value</text><polygon fill="#2196F3" points="503.6458,1926.7253,493.2292,1930.8919,503.6458,1935.0586,499.4792,1930.8919" style="stroke:#2196F3;stroke-width:1.0416666666666667;"/><line style="stroke:#2196F3;stroke-width:3.125;stroke-dasharray:2.0,2.0;" x1="497.3958" x2="804.6875" y1="1930.8919" y2="1930.8919"/><text fill="#222222" font-family="Verdana" font-size="12.5" lengthAdjust="spacing" textLength="56.25" x="520.3125" y="1915.4439">pin value</text><polygon fill="#2196F3" points="134.8958,1976.6927,124.4792,1980.8594,134.8958,1985.026,130.7292,1980.8594" style="stroke:#2196F3;stroke-width:1.0416666666666667;"/><line style="stroke:#2196F3;stroke-width:3.125;stroke-dasharray:2.0,2.0;" x1="128.6458" x2="485.9375" y1="1980.8594" y2="1980.8594"/><text fill="#222222" font-family="Verdana" font-size="12.5" lengthAdjust="spacing" textLength="76.0417" x="151.5625" y="1965.4114">button State</text><path d="M45.8333,1996.4844 L130.2083,1996.4844 L130.2083,2023.5352 L119.7917,2033.9518 L41.6667,2033.9518 L41.6667,2000.651 A4.1667,4.1667 0 0 1 45.8333,1996.4844 " fill="#FFFF3D" style="stroke:#666666;stroke-width:1.0416666666666667;"/><rect fill="none" height="294.5638" rx="4.1667" ry="4.1667" style="stroke:#2196F3;stroke-width:1.0416666666666667;" width="1014.5833" x="41.6667" y="1996.4844"/><text fill="#9C27B0" font-family="Verdana" font-size="12.5" font-weight="bold" lengthAdjust="spacing" textLength="20.8333" x="67.7083" y="2019.5455">alt</text><text fill="#222222" font-family="Verdana" font-size="12.5" font-weight="bold" lengthAdjust="spacing" textLength="129.1667" x="156.25" y="2020.5872">[button pressed]</text><polygon fill="#2196F3" points="303.6458,2091.1784,314.0625,2095.3451,303.6458,2099.5117,307.8125,2095.3451" style="stroke:#2196F3;stroke-width:1.0416666666666667;"/><line style="stroke:#2196F3;stroke-width:3.125;" x1="123.4375" x2="309.8958" y1="2095.3451" y2="2095.3451"/><text fill="#222222" font-family="Verdana" font-size="12.5" lengthAdjust="spacing" textLength="53.125" x="141.1458" y="2079.8971">Run SOS</text><polygon fill="#2196F3" points="949.4792,2141.1458,959.8958,2145.3125,949.4792,2149.4792,953.6458,2145.3125" style="stroke:#2196F3;stroke-width:1.0416666666666667;"/><line style="stroke:#2196F3;stroke-width:3.125;" x1="326.5625" x2="955.7292" y1="2145.3125" y2="2145.3125"/><text fill="#222222" font-family="Verdana" font-size="12.5" lengthAdjust="spacing" textLength="67.7083" x="344.2708" y="2129.8645">Timer start</text><polygon fill="#2196F3" points="338.0208,2191.1133,327.6042,2195.2799,338.0208,2199.4466,333.8542,2195.2799" style="stroke:#2196F3;stroke-width:1.0416666666666667;"/><line style="stroke:#2196F3;stroke-width:3.125;stroke-dasharray:2.0,2.0;" x1="331.7708" x2="966.1458" y1="2195.2799" y2="2195.2799"/><text fill="#222222" font-family="Verdana" font-size="12.5" lengthAdjust="spacing" textLength="60.4167" x="354.6875" y="2179.8319">TIMER_OK</text><polygon fill="#2196F3" points="134.8958,2241.0807,124.4792,2245.2474,134.8958,2249.4141,130.7292,2245.2474" style="stroke:#2196F3;stroke-width:1.0416666666666667;"/><line style="stroke:#2196F3;stroke-width:3.125;stroke-dasharray:2.0,2.0;" x1="128.6458" x2="320.3125" y1="2245.2474" y2="2245.2474"/><text fill="#222222" font-family="Verdana" font-size="12.5" lengthAdjust="spacing" textLength="58.3333" x="151.5625" y="2229.7994">SUCCESS</text><line style="stroke:#2196F3;stroke-width:1.0416666666666667;stroke-dasharray:2.0,2.0;" x1="41.6667" x2="1056.25" y1="2254.6224" y2="2254.6224"/><text fill="#222222" font-family="Verdana" font-size="12.5" font-weight="bold" lengthAdjust="spacing" textLength="176.0417" x="57.2917" y="2276.6418">[button is not pressed]</text><line style="stroke:#2196F3;stroke-width:1.0416666666666667;stroke-dasharray:2.0,2.0;" x1="31.25" x2="1066.6667" y1="2299.3815" y2="2299.3815"/><text fill="#222222" font-family="Verdana" font-size="12.5" font-weight="bold" lengthAdjust="spacing" textLength="118.75" x="46.875" y="2321.401">[App is running]</text><path d="M35.4167,2350.3906 L119.7917,2350.3906 L119.7917,2377.4414 L109.375,2387.8581 L31.25,2387.8581 L31.25,2354.5573 A4.1667,4.1667 0 0 1 35.4167,2350.3906 " fill="#FFFF3D" style="stroke:#666666;stroke-width:1.0416666666666667;"/><rect fill="none" height="949.2839" rx="4.1667" ry="4.1667" style="stroke:#2196F3;stroke-width:1.0416666666666667;" width="1025" x="31.25" y="2350.3906"/><text fill="#9C27B0" font-family="Verdana" font-size="12.5" font-weight="bold" lengthAdjust="spacing" textLength="20.8333" x="57.2917" y="2373.4517">alt</text><text fill="#222222" font-family="Verdana" font-size="12.5" font-weight="bold" lengthAdjust="spacing" textLength="243.75" x="145.8333" y="2374.4934">[System is interrupted by timer]</text><polygon fill="#2196F3" points="338.0208,2445.0846,327.6042,2449.2513,338.0208,2453.418,333.8542,2449.2513" style="stroke:#2196F3;stroke-width:1.0416666666666667;"/><line style="stroke:#2196F3;stroke-width:3.125;" x1="331.7708" x2="966.1458" y1="2449.2513" y2="2449.2513"/><text fill="#222222" font-family="Verdana" font-size="12.5" lengthAdjust="spacing" textLength="100" x="354.6875" y="2433.8033">start scheduling</text><line style="stroke:#2196F3;stroke-width:3.125;" x1="326.5625" x2="375.5208" y1="2494.0104" y2="2494.0104"/><line style="stroke:#2196F3;stroke-width:3.125;" x1="375.5208" x2="375.5208" y1="2494.0104" y2="2507.5521"/><line style="stroke:#2196F3;stroke-width:3.125;" x1="332.8125" x2="375.5208" y1="2507.5521" y2="2507.5521"/><polygon fill="#2196F3" points="343.2292,2503.3854,332.8125,2507.5521,343.2292,2511.7188,339.0625,2507.5521" style="stroke:#2196F3;stroke-width:1.0416666666666667;"/><text fill="#222222" font-family="Verdana" font-size="12.5" lengthAdjust="spacing" textLength="91.6667" x="349.4792" y="2478.5624">tickNumber++</text><line style="stroke:#2196F3;stroke-width:3.125;stroke-dasharray:2.0,2.0;" x1="331.7708" x2="375.5208" y1="2567.9362" y2="2567.9362"/><line style="stroke:#2196F3;stroke-width:3.125;stroke-dasharray:2.0,2.0;" x1="375.5208" x2="375.5208" y1="2567.9362" y2="2581.4779"/><line style="stroke:#2196F3;stroke-width:3.125;stroke-dasharray:2.0,2.0;" x1="326.5625" x2="375.5208" y1="2581.4779" y2="2581.4779"/><polygon fill="#2196F3" points="336.9792,2577.3112,326.5625,2581.4779,336.9792,2585.6445,332.8125,2581.4779" style="stroke:#2196F3;stroke-width:1.0416666666666667;"/><text fill="#222222" font-family="Verdana" font-size="12.5" lengthAdjust="spacing" textLength="35.4167" x="349.4792" y="2552.4882">DONE</text><path d="M45.8333,2591.8945 L130.2083,2591.8945 L130.2083,2618.9453 L119.7917,2629.362 L41.6667,2629.362 L41.6667,2596.0612 A4.1667,4.1667 0 0 1 45.8333,2591.8945 " fill="#FFFF3D" style="stroke:#666666;stroke-width:1.0416666666666667;"/><rect fill="none" height="194.6289" rx="4.1667" ry="4.1667" style="stroke:#2196F3;stroke-width:1.0416666666666667;" width="425" x="41.6667" y="2591.8945"/><text fill="#9C27B0" font-family="Verdana" font-size="12.5" font-weight="bold" lengthAdjust="spacing" textLength="20.8333" x="67.7083" y="2614.9556">alt</text><text fill="#222222" font-family="Verdana" font-size="12.5" font-weight="bold" lengthAdjust="spacing" textLength="294.7917" x="156.25" y="2615.9973">[tickNumber % buttonTPeriodicity  = 0]</text><polygon fill="#2196F3" points="140.1042,2686.5885,129.6875,2690.7552,140.1042,2694.9219,135.9375,2690.7552" style="stroke:#2196F3;stroke-width:1.0416666666666667;"/><line style="stroke:#2196F3;stroke-width:3.125;" x1="133.8542" x2="315.1042" y1="2690.7552" y2="2690.7552"/><text fill="#222222" font-family="Verdana" font-size="12.5" lengthAdjust="spacing" textLength="135.4167" x="156.7708" y="2675.3072">Get Stop Button State</text><polygon fill="#2196F3" points="303.6458,2736.556,314.0625,2740.7227,303.6458,2744.8893,307.8125,2740.7227" style="stroke:#2196F3;stroke-width:1.0416666666666667;"/><line style="stroke:#2196F3;stroke-width:3.125;stroke-dasharray:2.0,2.0;" x1="123.4375" x2="309.8958" y1="2740.7227" y2="2740.7227"/><text fill="#222222" font-family="Verdana" font-size="12.5" lengthAdjust="spacing" textLength="35.4167" x="141.1458" y="2725.2747">DONE</text><line style="stroke:#2196F3;stroke-width:1.0416666666666667;stroke-dasharray:2.0,2.0;" x1="41.6667" x2="466.6667" y1="2750.0977" y2="2750.0977"/><text fill="#222222" font-family="Verdana" font-size="12.5" font-weight="bold" lengthAdjust="spacing" textLength="139.5833" x="57.2917" y="2772.1171">[task is not ready]</text><path d="M45.8333,2801.1068 L130.2083,2801.1068 L130.2083,2828.1576 L119.7917,2838.5742 L41.6667,2838.5742 L41.6667,2805.2734 A4.1667,4.1667 0 0 1 45.8333,2801.1068 " fill="#FFFF3D" style="stroke:#666666;stroke-width:1.0416666666666667;"/><rect fill="none" height="194.6289" rx="4.1667" ry="4.1667" style="stroke:#2196F3;stroke-width:1.0416666666666667;" width="405.2083" x="41.6667" y="2801.1068"/><text fill="#9C27B0" font-family="Verdana" font-size="12.5" font-weight="bold" lengthAdjust="spacing" textLength="20.8333" x="67.7083" y="2824.1679">alt</text><text fill="#222222" font-family="Verdana" font-size="12.5" font-weight="bold" lengthAdjust="spacing" textLength="275" x="156.25" y="2825.2096">[tickNumber % LED0TPeriodicity = 0]</text><polygon fill="#2196F3" points="140.1042,2895.8008,129.6875,2899.9674,140.1042,2904.1341,135.9375,2899.9674" style="stroke:#2196F3;stroke-width:1.0416666666666667;"/><line style="stroke:#2196F3;stroke-width:3.125;" x1="133.8542" x2="315.1042" y1="2899.9674" y2="2899.9674"/><text fill="#222222" font-family="Verdana" font-size="12.5" lengthAdjust="spacing" textLength="83.3333" x="156.7708" y="2884.5194">Toggle LED 0</text><polygon fill="#2196F3" points="303.6458,2945.7682,314.0625,2949.9349,303.6458,2954.1016,307.8125,2949.9349" style="stroke:#2196F3;stroke-width:1.0416666666666667;"/><line style="stroke:#2196F3;stroke-width:3.125;stroke-dasharray:2.0,2.0;" x1="123.4375" x2="309.8958" y1="2949.9349" y2="2949.9349"/><text fill="#222222" font-family="Verdana" font-size="12.5" lengthAdjust="spacing" textLength="35.4167" x="141.1458" y="2934.4869">DONE</text><line style="stroke:#2196F3;stroke-width:1.0416666666666667;stroke-dasharray:2.0,2.0;" x1="41.6667" x2="446.875" y1="2959.3099" y2="2959.3099"/><text fill="#222222" font-family="Verdana" font-size="12.5" font-weight="bold" lengthAdjust="spacing" textLength="139.5833" x="57.2917" y="2981.3293">[task is not ready]</text><path d="M45.8333,3010.319 L130.2083,3010.319 L130.2083,3037.3698 L119.7917,3047.7865 L41.6667,3047.7865 L41.6667,3014.4857 A4.1667,4.1667 0 0 1 45.8333,3010.319 " fill="#FFFF3D" style="stroke:#666666;stroke-width:1.0416666666666667;"/><rect fill="none" height="194.6289" rx="4.1667" ry="4.1667" style="stroke:#2196F3;stroke-width:1.0416666666666667;" width="404.1667" x="41.6667" y="3010.319"/><text fill="#9C27B0" font-family="Verdana" font-size="12.5" font-weight="bold" lengthAdjust="spacing" textLength="20.8333" x="67.7083" y="3033.3801">alt</text><text fill="#222222" font-family="Verdana" font-size="12.5" font-weight="bold" lengthAdjust="spacing" textLength="273.9583" x="156.25" y="3034.4218">[tickNumber % LED1TPeriodicity = 0]</text><polygon fill="#2196F3" points="140.1042,3105.013,129.6875,3109.1797,140.1042,3113.3464,135.9375,3109.1797" style="stroke:#2196F3;stroke-width:1.0416666666666667;"/><line style="stroke:#2196F3;stroke-width:3.125;" x1="133.8542" x2="315.1042" y1="3109.1797" y2="3109.1797"/><text fill="#222222" font-family="Verdana" font-size="12.5" lengthAdjust="spacing" textLength="82.2917" x="156.7708" y="3093.7317">Toggle LED 1</text><polygon fill="#2196F3" points="303.6458,3154.9805,314.0625,3159.1471,303.6458,3163.3138,307.8125,3159.1471" style="stroke:#2196F3;stroke-width:1.0416666666666667;"/><line style="stroke:#2196F3;stroke-width:3.125;stroke-dasharray:2.0,2.0;" x1="123.4375" x2="309.8958" y1="3159.1471" y2="3159.1471"/><text fill="#222222" font-family="Verdana" font-size="12.5" lengthAdjust="spacing" textLength="35.4167" x="141.1458" y="3143.6991">DONE</text><line style="stroke:#2196F3;stroke-width:1.0416666666666667;stroke-dasharray:2.0,2.0;" x1="41.6667" x2="445.8333" y1="3168.5221" y2="3168.5221"/><text fill="#222222" font-family="Verdana" font-size="12.5" font-weight="bold" lengthAdjust="spacing" textLength="139.5833" x="57.2917" y="3190.5416">[task is not ready]</text><polygon fill="#2196F3" points="954.6875,3249.707,965.1042,3253.8737,954.6875,3258.0404,958.8542,3253.8737" style="stroke:#2196F3;stroke-width:1.0416666666666667;"/><line style="stroke:#2196F3;stroke-width:3.125;stroke-dasharray:2.0,2.0;" x1="321.3542" x2="960.9375" y1="3253.8737" y2="3253.8737"/><text fill="#222222" font-family="Verdana" font-size="12.5" lengthAdjust="spacing" textLength="35.4167" x="339.0625" y="3238.4257">DONE</text><line style="stroke:#2196F3;stroke-width:1.0416666666666667;stroke-dasharray:2.0,2.0;" x1="31.25" x2="1056.25" y1="3263.2487" y2="3263.2487"/><text fill="#222222" font-family="Verdana" font-size="12.5" font-weight="bold" lengthAdjust="spacing" textLength="118.75" x="46.875" y="3285.2681">[System is IDLE]</text><!--SRC=[hLLRYzf057xFhpX5-cI5wB8-17R1Mujqgul9FXGAPKmcEfXCGcPYiR- -PoxHJ7HXAVeIvro_VESxaqzoJtCAEP6qOiGJ1yPBKf4SfYG-xAgYvicio8eAUd_sJ5BF8xKiI2pP4JEWuE1Xk6GnAmcNC7bzTGtXEdJEqrhAWZkcbyNSES-NQ-SSiPnMdkUfseDd5Gu1B3cJ96D_gJeBy9GLdPZhE5KjPHkOn40PVg-_ct2qOSr0EPIjQM0WcYhCb34cuPcdsuXTTsegs6PDLjDl-XP5wrMx9RBaLbEqAIFwzEkxNgaPCOw1IGyWMlvOR5JHJfwW4XFYWyw29nZvkN1pePlS0CL31sK0SKNLu2KH1qMS7-6VB_2Blw9yYWHd9a_OvC7tjH5jbR6C6bowYY17MuDnc4ynj0-XL8MVOBEOp7-UWPoPE8DwcyqMOTZXhWDhU1lMunMiOGiMt0VN-y2sMWYteOty1fWXyFwu75XLpK74UvhK6KgfBHbi9d7xsYB3MZSaTjKWAugoDoRnOqgXbv3KJrF0-oAJlQ_uUvYZSPmcoHWcPGbCO9-YB6bojNWxLAoX2eOA3DuwtSLJ8ILISIHPJQ_sxkBfhfujgwcx2Sq6b1KLeWNDaBP1qhgR6TX5qwHzTAyQncWcaAeqfMDwRet4y49U452UT08jVJX2plZEHjnub_0a9CrLAEDukrTrAMa2svCThTUWFOjCpzsgGbLs9AZka5MTRsdLxxVLXjVSUhMu2U2I0fyRyRTLZ-BrlQQB_dO4y0qd6w8mx32joiqSpbXqHuSJkno6ErovvFGkBGugVOMvctY1f155nMwNwSyCUbemxenY-64Km_z5qGpDwjQCpScyA6OvVq6d5HzF_W40]--></g></svg>