<?xml version="1.0" encoding="us-ascii" standalone="no"?><svg xmlns="http://www.w3.org/2000/svg" xmlns:xlink="http://www.w3.org/1999/xlink" contentStyleType="text/css" height="1064.5833px" preserveAspectRatio="none" style="width:1003px;height:1064px;" version="1.1" viewBox="0 0 1003 1064" width="1003.3333px" zoomAndPan="magnify"><defs><linearGradient id="g1dzdzd4k66wk20" x1="50%" x2="50%" y1="0%" y2="100%"><stop offset="0%" stop-color="#F18E3E"/><stop offset="100%" stop-color="#EC7211"/></linearGradient></defs><g><!--cluster INITIALIZED_GROUP--><g id="cluster_INITIALIZED_GROUP"><path d="M16.0417,301.875 L879.375,301.875 A5.8333,5.8333 0 0 1 885.2083,307.7083 L885.2083,343.246 L10.2083,343.246 L10.2083,307.7083 A5.8333,5.8333 0 0 1 16.0417,301.875 " fill="url(#g1dzdzd4k66wk20)" style="stroke:url(#g1dzdzd4k66wk20);stroke-width:1.4583333333333333;"/><rect fill="none" height="753.9583" rx="5.8333" ry="5.8333" style="stroke:#EC7211;stroke-width:0.7291666666666666;" width="875" x="10.2083" y="301.875"/><line style="stroke:#EC7211;stroke-width:0.7291666666666666;" x1="10.2083" x2="885.2083" y1="343.246" y2="343.246"/><text fill="#FFFFFF" font-family="Verdana" font-size="16.0417" font-weight="bold" lengthAdjust="spacing" textLength="193.9583" x="350.7292" y="331.1278">INITIALIZED_GROUP</text></g><!--cluster SOS_SUPER_LOOP--><g id="cluster_SOS_SUPER_LOOP"><path d="M74.375,549.7917 L809.375,549.7917 A5.8333,5.8333 0 0 1 815.2083,555.625 L815.2083,591.1626 L68.5417,591.1626 L68.5417,555.625 A5.8333,5.8333 0 0 1 74.375,549.7917 " fill="url(#g1dzdzd4k66wk20)" style="stroke:url(#g1dzdzd4k66wk20);stroke-width:1.4583333333333333;"/><rect fill="none" height="447.7083" rx="5.8333" ry="5.8333" style="stroke:#EC7211;stroke-width:0.7291666666666666;" width="746.6667" x="68.5417" y="549.7917"/><line style="stroke:#EC7211;stroke-width:0.7291666666666666;" x1="68.5417" x2="815.2083" y1="591.1626" y2="591.1626"/><text fill="#FFFFFF" font-family="Verdana" font-size="16.0417" font-weight="bold" lengthAdjust="spacing" textLength="167.7083" x="358.0208" y="579.0445">SOS_SUPER_LOOP</text></g><rect fill="url(#g1dzdzd4k66wk20)" height="58.3333" rx="5.8333" ry="5.8333" style="stroke:#EC7211;stroke-width:0.7291666666666666;" width="316.4583" x="505.3125" y="374.7917"/><text fill="#FFFFFF" font-family="Verdana" font-size="16.0417" font-weight="bold" lengthAdjust="spacing" textLength="287.2917" x="519.8958" y="410.3382">SOS_SCHEDULER_INITIALIZED</text><g id="INITIALIZED_GROUP.SOS_SUPER_LOOP.SOS_SCHEDULER_BLOCKED"><rect fill="url(#g1dzdzd4k66wk20)" height="97.3252" rx="5.8333" ry="5.8333" style="stroke:#EC7211;stroke-width:0.7291666666666666;" width="294.5833" x="363.125" y="622.7083"/><line style="stroke:#EC7211;stroke-width:0.7291666666666666;" x1="363.125" x2="657.7083" y1="671.371" y2="671.371"/><text fill="#FFFFFF" font-family="Verdana" font-size="16.0417" font-weight="bold" lengthAdjust="spacing" textLength="250.8333" x="385" y="653.4195">SOS_SCHEDULER_BLOCKED</text><ellipse cx="385.7292" cy="694.5127" fill="#FFFFFF" rx="3.6458" ry="3.6458" style="stroke:#FFFFFF;stroke-width:0.0;"/><text fill="#FFFFFF" font-family="Verdana" font-size="16.0417" font-weight="bold" lengthAdjust="spacing" textLength="161.875" x="395.2083" y="702.0821">wait for next tick</text></g><g id="INITIALIZED_GROUP.SOS_SUPER_LOOP.SOS_SCHEDULER_READY"><rect fill="url(#g1dzdzd4k66wk20)" height="116.8212" rx="5.8333" ry="5.8333" style="stroke:#EC7211;stroke-width:0.7291666666666666;" width="350" x="227.5" y="845.8333"/><line style="stroke:#EC7211;stroke-width:0.7291666666666666;" x1="227.5" x2="577.5" y1="894.496" y2="894.496"/><text fill="#FFFFFF" font-family="Verdana" font-size="16.0417" font-weight="bold" lengthAdjust="spacing" textLength="228.9583" x="288.0208" y="876.5445">SOS_SCHEDULER_READY</text><ellipse cx="250.1042" cy="917.6377" fill="#FFFFFF" rx="3.6458" ry="3.6458" style="stroke:#FFFFFF;stroke-width:0.0;"/><text fill="#FFFFFF" font-family="Verdana" font-size="16.0417" font-weight="bold" lengthAdjust="spacing" textLength="255.2083" x="259.5833" y="925.2071">execute tasks (prioritized)</text><ellipse cx="250.1042" cy="937.1337" fill="#FFFFFF" rx="3.6458" ry="3.6458" style="stroke:#FFFFFF;stroke-width:0.0;"/><text fill="#FFFFFF" font-family="Verdana" font-size="16.0417" font-weight="bold" lengthAdjust="spacing" textLength="288.75" x="259.5833" y="944.7031">decrement/reset tasks delays</text></g><ellipse cx="767.0833" cy="23.3333" fill="#181818" rx="14.5833" ry="14.5833" style="stroke:none;stroke-width:1.4583333333333333;"/><rect fill="url(#g1dzdzd4k66wk20)" height="58.3333" rx="5.8333" ry="5.8333" style="stroke:#EC7211;stroke-width:0.7291666666666666;" width="223.125" x="655.5208" y="126.875"/><text fill="#FFFFFF" font-family="Verdana" font-size="16.0417" font-weight="bold" lengthAdjust="spacing" textLength="193.9583" x="670.1042" y="162.4215">SOS_UNINITIALIZED</text><ellipse cx="934.7917" cy="671.5625" fill="none" rx="14.5833" ry="14.5833" style="stroke:#0073BB;stroke-width:1.4583333333333333;"/><ellipse cx="935.5208" cy="672.2917" fill="#0073BB" rx="8.75" ry="8.75" style="stroke:none;stroke-width:1.4583333333333333;"/><!--link *start* to SOS_UNINITIALIZED--><g id="link_*start*_SOS_UNINITIALIZED"><path d="M767.0833,38.1938 C767.0833,57.1375 767.0833,92.4292 767.0833,119.1896 " fill="none" id="*start*-to-SOS_UNINITIALIZED" style="stroke:#EC7211;stroke-width:4.375;"/><polygon fill="#EC7211" points="767.0833,126.4958,772.9167,113.3708,767.0833,119.2042,761.25,113.3708,767.0833,126.4958" style="stroke:#EC7211;stroke-width:4.375;"/></g><!--link SOS_UNINITIALIZED to SOS_SCHEDULER_INITIALIZED--><g id="link_SOS_UNINITIALIZED_SOS_SCHEDULER_INITIALIZED"><path d="M723.7708,185.5438 C709.2312,197.1958 694.4437,211.9979 685.4167,228.9583 C662.3896,272.2708 659.7063,330.0062 660.8729,366.7271 " fill="none" id="SOS_UNINITIALIZED-to-SOS_SCHEDULER_INITIALIZED" style="stroke:#90EE90;stroke-width:4.375;"/><polygon fill="#90EE90" points="661.1646,374.2229,666.4671,360.8747,660.8723,366.9371,654.8099,361.3423,661.1646,374.2229" style="stroke:#90EE90;stroke-width:4.375;"/><text fill="#4E5D6C" font-family="Verdana" font-size="17.5" font-style="italic" font-weight="bold" lengthAdjust="spacing" textLength="97.7083" x="694.1667" y="255.3023">sos_init()</text></g><!--link SOS_SCHEDULER_INITIALIZED to SOS_SCHEDULER_BLOCKED--><g id="link_SOS_SCHEDULER_INITIALIZED_SOS_SCHEDULER_BLOCKED"><path d="M610.1229,433.4458 C592.8562,444.85 575.05,459.4771 562.9167,476.875 C534.2604,517.9417 521.2375,573.9563 515.3167,615.1104 " fill="none" id="SOS_SCHEDULER_INITIALIZED-to-SOS_SCHEDULER_BLOCKED" style="stroke:#90EE90;stroke-width:4.375;"/><polygon fill="#90EE90" points="514.2958,622.6208,521.838,610.3976,515.2745,615.3951,510.2769,608.8316,514.2958,622.6208" style="stroke:#90EE90;stroke-width:4.375;"/><text fill="#4E5D6C" font-family="Verdana" font-size="17.5" font-style="italic" font-weight="bold" lengthAdjust="spacing" textLength="100.625" x="571.6667" y="503.219">sos_run()</text></g><!--link SOS_SCHEDULER_READY to SOS_SCHEDULER_BLOCKED--><g id="link_SOS_SCHEDULER_READY_SOS_SCHEDULER_BLOCKED"><path d="M445.8563,845.4396 C455,831.7167 464.0125,816.7542 471.0417,802.0833 C482.2417,778.7208 491.1083,751.4792 497.5687,728.0438 " fill="none" id="SOS_SCHEDULER_READY-to-SOS_SCHEDULER_BLOCKED" style="stroke:#90EE90;stroke-width:4.375;"/><polygon fill="#90EE90" points="499.5083,720.8979,490.4327,732.0301,497.5933,727.9336,501.6898,735.0942,499.5083,720.8979" style="stroke:#90EE90;stroke-width:4.375;"/><text fill="#4E5D6C" font-family="Verdana" font-size="17.5" font-weight="bold" lengthAdjust="spacing" textLength="223.125" x="494.375" y="790.5107">SOS iteration executed</text></g><!--link SOS_SCHEDULER_BLOCKED to SOS_SCHEDULER_READY--><g id="link_SOS_SCHEDULER_BLOCKED_SOS_SCHEDULER_READY"><path d="M363.0958,691.1188 C273.7583,705.4542 171.85,729.0208 144.375,764.1667 C108.4854,810.075 156.4354,842.6542 220.3542,864.6167 " fill="none" id="SOS_SCHEDULER_BLOCKED-to-SOS_SCHEDULER_READY" style="stroke:#217CA3;stroke-width:4.375;"/><polygon fill="#217CA3" points="227.3979,866.9792,216.7999,857.2851,220.4825,864.6671,213.1005,868.3497,227.3979,866.9792" style="stroke:#217CA3;stroke-width:4.375;"/><text fill="#4E5D6C" font-family="Verdana" font-size="17.5" font-weight="bold" lengthAdjust="spacing" textLength="297.5" x="153.125" y="790.5107">SOS TICK (timer ISR callback)</text></g><!--link SOS_SUPER_LOOP to SOS_SCHEDULER_INITIALIZED--><g id="link_SOS_SUPER_LOOP_SOS_SCHEDULER_INITIALIZED"><path d="M806.0211,549.259 C805.9288,549.0345 805.8357,548.8103 805.7417,548.5866 C805.3656,547.6918 804.9754,546.8038 804.5707,545.923 C801.3332,538.8772 797.1669,532.299 791.875,526.4583 C772.4208,504.9771 751.4646,531.4021 727.7083,514.7917 C702.2021,496.9562 685.3,465.4708 675.2667,440.8396 " fill="none" id="SOS_SUPER_LOOP-to-SOS_SCHEDULER_INITIALIZED" style="stroke:#FF0000;stroke-width:4.375;"/><polygon fill="#FF0000" points="672.3792,433.4458,671.7081,447.7931,675.026,440.2401,682.579,443.5581,672.3792,433.4458" style="stroke:#FF0000;stroke-width:4.375;"/><text fill="#4E5D6C" font-family="Verdana" font-size="17.5" font-style="italic" font-weight="bold" lengthAdjust="spacing" textLength="134.1667" x="736.4583" y="503.219">sos_disable()</text></g><!--link INITIALIZED_GROUP to SOS_UNINITIALIZED--><g id="link_INITIALIZED_GROUP_SOS_UNINITIALIZED"><path d="M869.0041,301.7517 C868.907,301.3312 868.8084,300.9113 868.7085,300.4918 C868.5086,299.6528 868.3033,298.8157 868.0922,297.9808 C866.404,291.3021 864.3542,284.7669 861.875,278.5417 C848.575,245.1604 823.0687,213.4271 801.85,190.8375 " fill="none" id="INITIALIZED_GROUP-to-SOS_UNINITIALIZED" style="stroke:#FF0000;stroke-width:4.375;"/><polygon fill="#FF0000" points="796.5563,185.2812,801.4131,198.7981,801.5964,190.5505,809.844,190.7338,796.5563,185.2812" style="stroke:#FF0000;stroke-width:4.375;"/><text fill="#4E5D6C" font-family="Verdana" font-size="17.5" font-style="italic" font-weight="bold" lengthAdjust="spacing" textLength="121.0417" x="863.3333" y="255.3023">sos_deinit()</text></g><!--link INITIALIZED_GROUP to *end*--><g id="link_INITIALIZED_GROUP_*end*"><path d="M885.2452,455.9972 C885.3238,456.3368 885.4027,456.6776 885.4818,457.0196 C885.7983,458.3874 886.1192,459.7739 886.4441,461.1779 C887.0939,463.9858 887.76,466.8639 888.4403,469.8034 C891.1613,481.5613 894.1096,494.3012 897.1557,507.4635 C909.3401,560.113 923.0885,619.5219 930.1104,649.8771 " fill="none" id="INITIALIZED_GROUP-to-*end*" style="stroke:#FA8072;stroke-width:4.375;"/><polygon fill="#FA8072" points="931.7583,657.0083,934.4789,642.9054,930.1126,649.9048,923.1133,645.5385,931.7583,657.0083" style="stroke:#FA8072;stroke-width:4.375;"/><text fill="#4E5D6C" font-family="Verdana" font-size="17.5" font-weight="bold" lengthAdjust="spacing" textLength="71.4583" x="907.0833" y="503.219">FAILED</text></g><!--SRC=[bLHDRzf04BtlhvWg1uWbrqehjHM7IYuuZHKK8XmERHIXnJl1AzQxrkuYGgl-zuun92OX9VLnzirxy_76dSBxolMYg59S-sMftkUcZ7B5dGk5v7FBIzQ9bxumjWSNnZbUGg9Ml705O-zyWIK2NxdGMAxdo3hRq4pnV14kj9mNlXLSOcMbVehatCwC3abb_HHJPYbSpYiC1Jevruylhk8vAZvZ7RUGkk9K6yJMcjMvqRvlbB5myk7iSp_-o0u0ChzML8DHelMQUUunzjxAsTBZVy0QkLKXFR8MS3EuVJxv2-7iqtFCqzCNLaY1W6Nbrq0TvrPMNXhDs6rm1s7u5R9HDfrSfLVfJHeFqv_9W1JhWg0LcduVZoRNlndGzm8FuUs9gbSnjuZwRakPzI-ImMIOZATjQ0-YA0YSSLEffU-U1a4KCRRXRKGtgPDhIXkEHjVGIEva3tCUaVys7FKlzwJjKc-LEyVPUn30YaiFzxGHoWHoSCcr8BP7hhg7mqpZ91xyU7k550VQkUNrYW0VCASzYrUuTsd4tlZo9NCZt_3UfFrBw7fPeeKq6zDrA3MZEpfb_oo-xdzR27Zk5WwwT6N6Ia_-4gV7KWNcbgvB-yYYGx-b47HeQyUEDBOtUeqFb2tpnIRf3tlqOiijD0cBugqE5DBncSAT2OdoXUEVCUxRliM4BJSV975SbMQp-lhigB7WF4w7oI08MATc7YJxbXPcfHlmmVTwCfatLMEO-_fsR6sKrx02mxf2oLNzKo0G-mi0]--></g></svg>